<?xml version="1.0" encoding="utf-8" standalone="no"?>
<!DOCTYPE svg PUBLIC "-//W3C//DTD SVG 1.1//EN"
  "http://www.w3.org/Graphics/SVG/1.1/DTD/svg11.dtd">
<svg xmlns:xlink="http://www.w3.org/1999/xlink" width="576pt" height="273.6pt" viewBox="0 0 576 273.6" xmlns="http://www.w3.org/2000/svg" version="1.1">
 <metadata>
  <rdf:RDF xmlns:dc="http://purl.org/dc/elements/1.1/" xmlns:cc="http://creativecommons.org/ns#" xmlns:rdf="http://www.w3.org/1999/02/22-rdf-syntax-ns#">
   <cc:Work>
    <dc:type rdf:resource="http://purl.org/dc/dcmitype/StillImage"/>
    <dc:date>2026-07-16T12:47:21.685221</dc:date>
    <dc:format>image/svg+xml</dc:format>
    <dc:creator>
     <cc:Agent>
      <dc:title>Matplotlib v3.11.0, https://matplotlib.org/</dc:title>
     </cc:Agent>
    </dc:creator>
   </cc:Work>
  </rdf:RDF>
 </metadata>
 <defs>
  <style type="text/css">*{stroke-linejoin: round; stroke-linecap: butt}</style>
 </defs>
 <g id="figure_1">
  <g id="patch_1">
   <path d="M 0 273.6 
L 576 273.6 
L 576 0 
L 0 0 
z
" style="fill: #ffffff"/>
  </g>
  <g id="axes_1">
   <g id="patch_2">
    <path d="M 44.390909 232.3 
L 565.2 232.3 
L 565.2 29.455236 
L 44.390909 29.455236 
z
" style="fill: #ffffff"/>
   </g>
   <g id="matplotlib.axis_1">
    <g id="xtick_1">
     <g id="line2d_1">
      <defs>
       <path id="mbd999a2b44" d="M 0 0 
L 0 3.5 
" style="stroke: #58595a; stroke-width: 0.8"/>
      </defs>
      <g>
       <use xlink:href="#mbd999a2b44" x="44.390909" y="232.3" style="fill: #58595a; stroke: #58595a; stroke-width: 0.8"/>
      </g>
     </g>
     <g id="text_1">
      <!-- 0 -->
      <g style="fill: #58595a" transform="translate(41.209659 246.897656) scale(0.1 -0.1)">
       <defs>
        <path id="DejaVuSans-13" d="M 2034 4250 
Q 1547 4250 1301 3770 
Q 1056 3291 1056 2328 
Q 1056 1369 1301 889 
Q 1547 409 2034 409 
Q 2525 409 2770 889 
Q 3016 1369 3016 2328 
Q 3016 3291 2770 3770 
Q 2525 4250 2034 4250 
z
M 2034 4750 
Q 2819 4750 3233 4129 
Q 3647 3509 3647 2328 
Q 3647 1150 3233 529 
Q 2819 -91 2034 -91 
Q 1250 -91 836 529 
Q 422 1150 422 2328 
Q 422 3509 836 4129 
Q 1250 4750 2034 4750 
z
" transform="scale(0.015625)"/>
       </defs>
       <use xlink:href="#DejaVuSans-13"/>
      </g>
     </g>
    </g>
    <g id="xtick_2">
     <g id="line2d_2">
      <g>
       <use xlink:href="#mbd999a2b44" x="107.519284" y="232.3" style="fill: #58595a; stroke: #58595a; stroke-width: 0.8"/>
      </g>
     </g>
     <g id="text_2">
      <!-- 2 -->
      <g style="fill: #58595a" transform="translate(104.338034 246.897656) scale(0.1 -0.1)">
       <defs>
        <path id="DejaVuSans-15" d="M 1228 531 
L 3431 531 
L 3431 0 
L 469 0 
L 469 531 
Q 828 903 1448 1529 
Q 2069 2156 2228 2338 
Q 2531 2678 2651 2914 
Q 2772 3150 2772 3378 
Q 2772 3750 2511 3984 
Q 2250 4219 1831 4219 
Q 1534 4219 1204 4116 
Q 875 4013 500 3803 
L 500 4441 
Q 881 4594 1212 4672 
Q 1544 4750 1819 4750 
Q 2544 4750 2975 4387 
Q 3406 4025 3406 3419 
Q 3406 3131 3298 2873 
Q 3191 2616 2906 2266 
Q 2828 2175 2409 1742 
Q 1991 1309 1228 531 
z
" transform="scale(0.015625)"/>
       </defs>
       <use xlink:href="#DejaVuSans-15"/>
      </g>
     </g>
    </g>
    <g id="xtick_3">
     <g id="line2d_3">
      <g>
       <use xlink:href="#mbd999a2b44" x="170.647658" y="232.3" style="fill: #58595a; stroke: #58595a; stroke-width: 0.8"/>
      </g>
     </g>
     <g id="text_3">
      <!-- 4 -->
      <g style="fill: #58595a" transform="translate(167.466408 246.897656) scale(0.1 -0.1)">
       <defs>
        <path id="DejaVuSans-17" d="M 2419 4116 
L 825 1625 
L 2419 1625 
L 2419 4116 
z
M 2253 4666 
L 3047 4666 
L 3047 1625 
L 3713 1625 
L 3713 1100 
L 3047 1100 
L 3047 0 
L 2419 0 
L 2419 1100 
L 313 1100 
L 313 1709 
L 2253 4666 
z
" transform="scale(0.015625)"/>
       </defs>
       <use xlink:href="#DejaVuSans-17"/>
      </g>
     </g>
    </g>
    <g id="xtick_4">
     <g id="line2d_4">
      <g>
       <use xlink:href="#mbd999a2b44" x="233.776033" y="232.3" style="fill: #58595a; stroke: #58595a; stroke-width: 0.8"/>
      </g>
     </g>
     <g id="text_4">
      <!-- 6 -->
      <g style="fill: #58595a" transform="translate(230.594783 246.897656) scale(0.1 -0.1)">
       <defs>
        <path id="DejaVuSans-19" d="M 2113 2584 
Q 1688 2584 1439 2293 
Q 1191 2003 1191 1497 
Q 1191 994 1439 701 
Q 1688 409 2113 409 
Q 2538 409 2786 701 
Q 3034 994 3034 1497 
Q 3034 2003 2786 2293 
Q 2538 2584 2113 2584 
z
M 3366 4563 
L 3366 3988 
Q 3128 4100 2886 4159 
Q 2644 4219 2406 4219 
Q 1781 4219 1451 3797 
Q 1122 3375 1075 2522 
Q 1259 2794 1537 2939 
Q 1816 3084 2150 3084 
Q 2853 3084 3261 2657 
Q 3669 2231 3669 1497 
Q 3669 778 3244 343 
Q 2819 -91 2113 -91 
Q 1303 -91 875 529 
Q 447 1150 447 2328 
Q 447 3434 972 4092 
Q 1497 4750 2381 4750 
Q 2619 4750 2861 4703 
Q 3103 4656 3366 4563 
z
" transform="scale(0.015625)"/>
       </defs>
       <use xlink:href="#DejaVuSans-19"/>
      </g>
     </g>
    </g>
    <g id="xtick_5">
     <g id="line2d_5">
      <g>
       <use xlink:href="#mbd999a2b44" x="296.904408" y="232.3" style="fill: #58595a; stroke: #58595a; stroke-width: 0.8"/>
      </g>
     </g>
     <g id="text_5">
      <!-- 8 -->
      <g style="fill: #58595a" transform="translate(293.723158 246.897656) scale(0.1 -0.1)">
       <defs>
        <path id="DejaVuSans-1b" d="M 2034 2216 
Q 1584 2216 1326 1975 
Q 1069 1734 1069 1313 
Q 1069 891 1326 650 
Q 1584 409 2034 409 
Q 2484 409 2743 651 
Q 3003 894 3003 1313 
Q 3003 1734 2745 1975 
Q 2488 2216 2034 2216 
z
M 1403 2484 
Q 997 2584 770 2862 
Q 544 3141 544 3541 
Q 544 4100 942 4425 
Q 1341 4750 2034 4750 
Q 2731 4750 3128 4425 
Q 3525 4100 3525 3541 
Q 3525 3141 3298 2862 
Q 3072 2584 2669 2484 
Q 3125 2378 3379 2068 
Q 3634 1759 3634 1313 
Q 3634 634 3220 271 
Q 2806 -91 2034 -91 
Q 1263 -91 848 271 
Q 434 634 434 1313 
Q 434 1759 690 2068 
Q 947 2378 1403 2484 
z
M 1172 3481 
Q 1172 3119 1398 2916 
Q 1625 2713 2034 2713 
Q 2441 2713 2670 2916 
Q 2900 3119 2900 3481 
Q 2900 3844 2670 4047 
Q 2441 4250 2034 4250 
Q 1625 4250 1398 4047 
Q 1172 3844 1172 3481 
z
" transform="scale(0.015625)"/>
       </defs>
       <use xlink:href="#DejaVuSans-1b"/>
      </g>
     </g>
    </g>
    <g id="xtick_6">
     <g id="line2d_6">
      <g>
       <use xlink:href="#mbd999a2b44" x="360.032782" y="232.3" style="fill: #58595a; stroke: #58595a; stroke-width: 0.8"/>
      </g>
     </g>
     <g id="text_6">
      <!-- 10 -->
      <g style="fill: #58595a" transform="translate(353.670282 246.897656) scale(0.1 -0.1)">
       <defs>
        <path id="DejaVuSans-14" d="M 794 531 
L 1825 531 
L 1825 4091 
L 703 3866 
L 703 4441 
L 1819 4666 
L 2450 4666 
L 2450 531 
L 3481 531 
L 3481 0 
L 794 0 
L 794 531 
z
" transform="scale(0.015625)"/>
       </defs>
       <use xlink:href="#DejaVuSans-14"/>
       <use xlink:href="#DejaVuSans-13" transform="translate(63.625 0)"/>
      </g>
     </g>
    </g>
    <g id="xtick_7">
     <g id="line2d_7">
      <g>
       <use xlink:href="#mbd999a2b44" x="423.161157" y="232.3" style="fill: #58595a; stroke: #58595a; stroke-width: 0.8"/>
      </g>
     </g>
     <g id="text_7">
      <!-- 12 -->
      <g style="fill: #58595a" transform="translate(416.798657 246.897656) scale(0.1 -0.1)">
       <use xlink:href="#DejaVuSans-14"/>
       <use xlink:href="#DejaVuSans-15" transform="translate(63.625 0)"/>
      </g>
     </g>
    </g>
    <g id="xtick_8">
     <g id="line2d_8">
      <g>
       <use xlink:href="#mbd999a2b44" x="486.289532" y="232.3" style="fill: #58595a; stroke: #58595a; stroke-width: 0.8"/>
      </g>
     </g>
     <g id="text_8">
      <!-- 14 -->
      <g style="fill: #58595a" transform="translate(479.927032 246.897656) scale(0.1 -0.1)">
       <use xlink:href="#DejaVuSans-14"/>
       <use xlink:href="#DejaVuSans-17" transform="translate(63.625 0)"/>
      </g>
     </g>
    </g>
    <g id="xtick_9">
     <g id="line2d_9">
      <g>
       <use xlink:href="#mbd999a2b44" x="549.417906" y="232.3" style="fill: #58595a; stroke: #58595a; stroke-width: 0.8"/>
      </g>
     </g>
     <g id="text_9">
      <!-- 16 -->
      <g style="fill: #58595a" transform="translate(543.055406 246.897656) scale(0.1 -0.1)">
       <use xlink:href="#DejaVuSans-14"/>
       <use xlink:href="#DejaVuSans-19" transform="translate(63.625 0)"/>
      </g>
     </g>
    </g>
    <g id="text_10">
     <!-- characteristics monitored (thousands) -->
     <g style="fill: #58595a" transform="translate(214.169165 260.518516) scale(0.095 -0.095)">
      <defs>
       <path id="DejaVuSans-46" d="M 3122 3366 
L 3122 2828 
Q 2878 2963 2633 3030 
Q 2388 3097 2138 3097 
Q 1578 3097 1268 2742 
Q 959 2388 959 1747 
Q 959 1106 1268 751 
Q 1578 397 2138 397 
Q 2388 397 2633 464 
Q 2878 531 3122 666 
L 3122 134 
Q 2881 22 2623 -34 
Q 2366 -91 2075 -91 
Q 1284 -91 818 406 
Q 353 903 353 1747 
Q 353 2603 823 3093 
Q 1294 3584 2113 3584 
Q 2378 3584 2631 3529 
Q 2884 3475 3122 3366 
z
" transform="scale(0.015625)"/>
       <path id="DejaVuSans-4b" d="M 3513 2113 
L 3513 0 
L 2938 0 
L 2938 2094 
Q 2938 2591 2744 2837 
Q 2550 3084 2163 3084 
Q 1697 3084 1428 2787 
Q 1159 2491 1159 1978 
L 1159 0 
L 581 0 
L 581 4863 
L 1159 4863 
L 1159 2956 
Q 1366 3272 1645 3428 
Q 1925 3584 2291 3584 
Q 2894 3584 3203 3211 
Q 3513 2838 3513 2113 
z
" transform="scale(0.015625)"/>
       <path id="DejaVuSans-44" d="M 2194 1759 
Q 1497 1759 1228 1600 
Q 959 1441 959 1056 
Q 959 750 1161 570 
Q 1363 391 1709 391 
Q 2188 391 2477 730 
Q 2766 1069 2766 1631 
L 2766 1759 
L 2194 1759 
z
M 3341 1997 
L 3341 0 
L 2766 0 
L 2766 531 
Q 2569 213 2275 61 
Q 1981 -91 1556 -91 
Q 1019 -91 701 211 
Q 384 513 384 1019 
Q 384 1609 779 1909 
Q 1175 2209 1959 2209 
L 2766 2209 
L 2766 2266 
Q 2766 2663 2505 2880 
Q 2244 3097 1772 3097 
Q 1472 3097 1187 3025 
Q 903 2953 641 2809 
L 641 3341 
Q 956 3463 1253 3523 
Q 1550 3584 1831 3584 
Q 2591 3584 2966 3190 
Q 3341 2797 3341 1997 
z
" transform="scale(0.015625)"/>
       <path id="DejaVuSans-55" d="M 2631 2963 
Q 2534 3019 2420 3045 
Q 2306 3072 2169 3072 
Q 1681 3072 1420 2755 
Q 1159 2438 1159 1844 
L 1159 0 
L 581 0 
L 581 3500 
L 1159 3500 
L 1159 2956 
Q 1341 3275 1631 3429 
Q 1922 3584 2338 3584 
Q 2397 3584 2469 3576 
Q 2541 3569 2628 3553 
L 2631 2963 
z
" transform="scale(0.015625)"/>
       <path id="DejaVuSans-57" d="M 1172 4494 
L 1172 3500 
L 2356 3500 
L 2356 3053 
L 1172 3053 
L 1172 1153 
Q 1172 725 1289 603 
Q 1406 481 1766 481 
L 2356 481 
L 2356 0 
L 1766 0 
Q 1100 0 847 248 
Q 594 497 594 1153 
L 594 3053 
L 172 3053 
L 172 3500 
L 594 3500 
L 594 4494 
L 1172 4494 
z
" transform="scale(0.015625)"/>
       <path id="DejaVuSans-48" d="M 3597 1894 
L 3597 1613 
L 953 1613 
Q 991 1019 1311 708 
Q 1631 397 2203 397 
Q 2534 397 2845 478 
Q 3156 559 3463 722 
L 3463 178 
Q 3153 47 2828 -22 
Q 2503 -91 2169 -91 
Q 1331 -91 842 396 
Q 353 884 353 1716 
Q 353 2575 817 3079 
Q 1281 3584 2069 3584 
Q 2775 3584 3186 3129 
Q 3597 2675 3597 1894 
z
M 3022 2063 
Q 3016 2534 2758 2815 
Q 2500 3097 2075 3097 
Q 1594 3097 1305 2825 
Q 1016 2553 972 2059 
L 3022 2063 
z
" transform="scale(0.015625)"/>
       <path id="DejaVuSans-4c" d="M 603 3500 
L 1178 3500 
L 1178 0 
L 603 0 
L 603 3500 
z
M 603 4863 
L 1178 4863 
L 1178 4134 
L 603 4134 
L 603 4863 
z
" transform="scale(0.015625)"/>
       <path id="DejaVuSans-56" d="M 2834 3397 
L 2834 2853 
Q 2591 2978 2328 3040 
Q 2066 3103 1784 3103 
Q 1356 3103 1142 2972 
Q 928 2841 928 2578 
Q 928 2378 1081 2264 
Q 1234 2150 1697 2047 
L 1894 2003 
Q 2506 1872 2764 1633 
Q 3022 1394 3022 966 
Q 3022 478 2636 193 
Q 2250 -91 1575 -91 
Q 1294 -91 989 -36 
Q 684 19 347 128 
L 347 722 
Q 666 556 975 473 
Q 1284 391 1588 391 
Q 1994 391 2212 530 
Q 2431 669 2431 922 
Q 2431 1156 2273 1281 
Q 2116 1406 1581 1522 
L 1381 1569 
Q 847 1681 609 1914 
Q 372 2147 372 2553 
Q 372 3047 722 3315 
Q 1072 3584 1716 3584 
Q 2034 3584 2315 3537 
Q 2597 3491 2834 3397 
z
" transform="scale(0.015625)"/>
       <path id="DejaVuSans-3" transform="scale(0.015625)"/>
       <path id="DejaVuSans-50" d="M 3328 2828 
Q 3544 3216 3844 3400 
Q 4144 3584 4550 3584 
Q 5097 3584 5394 3201 
Q 5691 2819 5691 2113 
L 5691 0 
L 5113 0 
L 5113 2094 
Q 5113 2597 4934 2840 
Q 4756 3084 4391 3084 
Q 3944 3084 3684 2787 
Q 3425 2491 3425 1978 
L 3425 0 
L 2847 0 
L 2847 2094 
Q 2847 2600 2669 2842 
Q 2491 3084 2119 3084 
Q 1678 3084 1418 2786 
Q 1159 2488 1159 1978 
L 1159 0 
L 581 0 
L 581 3500 
L 1159 3500 
L 1159 2956 
Q 1356 3278 1631 3431 
Q 1906 3584 2284 3584 
Q 2666 3584 2933 3390 
Q 3200 3197 3328 2828 
z
" transform="scale(0.015625)"/>
       <path id="DejaVuSans-52" d="M 1959 3097 
Q 1497 3097 1228 2736 
Q 959 2375 959 1747 
Q 959 1119 1226 758 
Q 1494 397 1959 397 
Q 2419 397 2687 759 
Q 2956 1122 2956 1747 
Q 2956 2369 2687 2733 
Q 2419 3097 1959 3097 
z
M 1959 3584 
Q 2709 3584 3137 3096 
Q 3566 2609 3566 1747 
Q 3566 888 3137 398 
Q 2709 -91 1959 -91 
Q 1206 -91 779 398 
Q 353 888 353 1747 
Q 353 2609 779 3096 
Q 1206 3584 1959 3584 
z
" transform="scale(0.015625)"/>
       <path id="DejaVuSans-51" d="M 3513 2113 
L 3513 0 
L 2938 0 
L 2938 2094 
Q 2938 2591 2744 2837 
Q 2550 3084 2163 3084 
Q 1697 3084 1428 2787 
Q 1159 2491 1159 1978 
L 1159 0 
L 581 0 
L 581 3500 
L 1159 3500 
L 1159 2956 
Q 1366 3272 1645 3428 
Q 1925 3584 2291 3584 
Q 2894 3584 3203 3211 
Q 3513 2838 3513 2113 
z
" transform="scale(0.015625)"/>
       <path id="DejaVuSans-47" d="M 2906 2969 
L 2906 4863 
L 3481 4863 
L 3481 0 
L 2906 0 
L 2906 525 
Q 2725 213 2448 61 
Q 2172 -91 1784 -91 
Q 1150 -91 751 415 
Q 353 922 353 1747 
Q 353 2572 751 3078 
Q 1150 3584 1784 3584 
Q 2172 3584 2448 3432 
Q 2725 3281 2906 2969 
z
M 947 1747 
Q 947 1113 1208 752 
Q 1469 391 1925 391 
Q 2381 391 2643 752 
Q 2906 1113 2906 1747 
Q 2906 2381 2643 2742 
Q 2381 3103 1925 3103 
Q 1469 3103 1208 2742 
Q 947 2381 947 1747 
z
" transform="scale(0.015625)"/>
       <path id="DejaVuSans-b" d="M 1984 4856 
Q 1566 4138 1362 3434 
Q 1159 2731 1159 2009 
Q 1159 1288 1364 580 
Q 1569 -128 1984 -844 
L 1484 -844 
Q 1016 -109 783 600 
Q 550 1309 550 2009 
Q 550 2706 781 3412 
Q 1013 4119 1484 4856 
L 1984 4856 
z
" transform="scale(0.015625)"/>
       <path id="DejaVuSans-58" d="M 544 1381 
L 544 3500 
L 1119 3500 
L 1119 1403 
Q 1119 906 1312 657 
Q 1506 409 1894 409 
Q 2359 409 2629 706 
Q 2900 1003 2900 1516 
L 2900 3500 
L 3475 3500 
L 3475 0 
L 2900 0 
L 2900 538 
Q 2691 219 2414 64 
Q 2138 -91 1772 -91 
Q 1169 -91 856 284 
Q 544 659 544 1381 
z
M 1991 3584 
L 1991 3584 
z
" transform="scale(0.015625)"/>
       <path id="DejaVuSans-c" d="M 513 4856 
L 1013 4856 
Q 1481 4119 1714 3412 
Q 1947 2706 1947 2009 
Q 1947 1309 1714 600 
Q 1481 -109 1013 -844 
L 513 -844 
Q 928 -128 1133 580 
Q 1338 1288 1338 2009 
Q 1338 2731 1133 3434 
Q 928 4138 513 4856 
z
" transform="scale(0.015625)"/>
      </defs>
      <use xlink:href="#DejaVuSans-46"/>
      <use xlink:href="#DejaVuSans-4b" transform="translate(54.984375 0)"/>
      <use xlink:href="#DejaVuSans-44" transform="translate(118.359375 0)"/>
      <use xlink:href="#DejaVuSans-55" transform="translate(179.640625 0)"/>
      <use xlink:href="#DejaVuSans-44" transform="translate(220.75 0)"/>
      <use xlink:href="#DejaVuSans-46" transform="translate(282.03125 0)"/>
      <use xlink:href="#DejaVuSans-57" transform="translate(337.015625 0)"/>
      <use xlink:href="#DejaVuSans-48" transform="translate(376.21875 0)"/>
      <use xlink:href="#DejaVuSans-55" transform="translate(437.75 0)"/>
      <use xlink:href="#DejaVuSans-4c" transform="translate(478.859375 0)"/>
      <use xlink:href="#DejaVuSans-56" transform="translate(506.640625 0)"/>
      <use xlink:href="#DejaVuSans-57" transform="translate(558.734375 0)"/>
      <use xlink:href="#DejaVuSans-4c" transform="translate(597.9375 0)"/>
      <use xlink:href="#DejaVuSans-46" transform="translate(625.71875 0)"/>
      <use xlink:href="#DejaVuSans-56" transform="translate(680.703125 0)"/>
      <use xlink:href="#DejaVuSans-3" transform="translate(732.796875 0)"/>
      <use xlink:href="#DejaVuSans-50" transform="translate(764.578125 0)"/>
      <use xlink:href="#DejaVuSans-52" transform="translate(861.984375 0)"/>
      <use xlink:href="#DejaVuSans-51" transform="translate(923.171875 0)"/>
      <use xlink:href="#DejaVuSans-4c" transform="translate(986.546875 0)"/>
      <use xlink:href="#DejaVuSans-57" transform="translate(1014.328125 0)"/>
      <use xlink:href="#DejaVuSans-52" transform="translate(1053.53125 0)"/>
      <use xlink:href="#DejaVuSans-55" transform="translate(1114.71875 0)"/>
      <use xlink:href="#DejaVuSans-48" transform="translate(1153.625 0)"/>
      <use xlink:href="#DejaVuSans-47" transform="translate(1215.15625 0)"/>
      <use xlink:href="#DejaVuSans-3" transform="translate(1278.640625 0)"/>
      <use xlink:href="#DejaVuSans-b" transform="translate(1310.421875 0)"/>
      <use xlink:href="#DejaVuSans-57" transform="translate(1349.4375 0)"/>
      <use xlink:href="#DejaVuSans-4b" transform="translate(1388.640625 0)"/>
      <use xlink:href="#DejaVuSans-52" transform="translate(1452.015625 0)"/>
      <use xlink:href="#DejaVuSans-58" transform="translate(1513.203125 0)"/>
      <use xlink:href="#DejaVuSans-56" transform="translate(1576.578125 0)"/>
      <use xlink:href="#DejaVuSans-44" transform="translate(1628.671875 0)"/>
      <use xlink:href="#DejaVuSans-51" transform="translate(1689.953125 0)"/>
      <use xlink:href="#DejaVuSans-47" transform="translate(1753.328125 0)"/>
      <use xlink:href="#DejaVuSans-56" transform="translate(1816.8125 0)"/>
      <use xlink:href="#DejaVuSans-c" transform="translate(1868.90625 0)"/>
     </g>
    </g>
   </g>
   <g id="matplotlib.axis_2">
    <g id="ytick_1">
     <g id="line2d_10">
      <defs>
       <path id="m9767ed7fb3" d="M 0 0 
L -3.5 0 
" style="stroke: #58595a; stroke-width: 0.8"/>
      </defs>
      <g>
       <use xlink:href="#m9767ed7fb3" x="44.390909" y="232.3" style="fill: #58595a; stroke: #58595a; stroke-width: 0.8"/>
      </g>
     </g>
     <g id="text_11">
      <!-- 0 -->
      <g style="fill: #58595a" transform="translate(31.028409 236.098828) scale(0.1 -0.1)">
       <use xlink:href="#DejaVuSans-13"/>
      </g>
     </g>
    </g>
    <g id="ytick_2">
     <g id="line2d_11">
      <g>
       <use xlink:href="#m9767ed7fb3" x="44.390909" y="188.747716" style="fill: #58595a; stroke: #58595a; stroke-width: 0.8"/>
      </g>
     </g>
     <g id="text_12">
      <!-- 10 -->
      <g style="fill: #58595a" transform="translate(24.665909 192.546544) scale(0.1 -0.1)">
       <use xlink:href="#DejaVuSans-14"/>
       <use xlink:href="#DejaVuSans-13" transform="translate(63.625 0)"/>
      </g>
     </g>
    </g>
    <g id="ytick_3">
     <g id="line2d_12">
      <g>
       <use xlink:href="#m9767ed7fb3" x="44.390909" y="145.195431" style="fill: #58595a; stroke: #58595a; stroke-width: 0.8"/>
      </g>
     </g>
     <g id="text_13">
      <!-- 20 -->
      <g style="fill: #58595a" transform="translate(24.665909 148.99426) scale(0.1 -0.1)">
       <use xlink:href="#DejaVuSans-15"/>
       <use xlink:href="#DejaVuSans-13" transform="translate(63.625 0)"/>
      </g>
     </g>
    </g>
    <g id="ytick_4">
     <g id="line2d_13">
      <g>
       <use xlink:href="#m9767ed7fb3" x="44.390909" y="101.643147" style="fill: #58595a; stroke: #58595a; stroke-width: 0.8"/>
      </g>
     </g>
     <g id="text_14">
      <!-- 30 -->
      <g style="fill: #58595a" transform="translate(24.665909 105.441975) scale(0.1 -0.1)">
       <defs>
        <path id="DejaVuSans-16" d="M 2597 2516 
Q 3050 2419 3304 2112 
Q 3559 1806 3559 1356 
Q 3559 666 3084 287 
Q 2609 -91 1734 -91 
Q 1441 -91 1130 -33 
Q 819 25 488 141 
L 488 750 
Q 750 597 1062 519 
Q 1375 441 1716 441 
Q 2309 441 2620 675 
Q 2931 909 2931 1356 
Q 2931 1769 2642 2001 
Q 2353 2234 1838 2234 
L 1294 2234 
L 1294 2753 
L 1863 2753 
Q 2328 2753 2575 2939 
Q 2822 3125 2822 3475 
Q 2822 3834 2567 4026 
Q 2313 4219 1838 4219 
Q 1578 4219 1281 4162 
Q 984 4106 628 3988 
L 628 4550 
Q 988 4650 1302 4700 
Q 1616 4750 1894 4750 
Q 2613 4750 3031 4423 
Q 3450 4097 3450 3541 
Q 3450 3153 3228 2886 
Q 3006 2619 2597 2516 
z
" transform="scale(0.015625)"/>
       </defs>
       <use xlink:href="#DejaVuSans-16"/>
       <use xlink:href="#DejaVuSans-13" transform="translate(63.625 0)"/>
      </g>
     </g>
    </g>
    <g id="ytick_5">
     <g id="line2d_14">
      <g>
       <use xlink:href="#m9767ed7fb3" x="44.390909" y="58.090863" style="fill: #58595a; stroke: #58595a; stroke-width: 0.8"/>
      </g>
     </g>
     <g id="text_15">
      <!-- 40 -->
      <g style="fill: #58595a" transform="translate(24.665909 61.889691) scale(0.1 -0.1)">
       <use xlink:href="#DejaVuSans-17"/>
       <use xlink:href="#DejaVuSans-13" transform="translate(63.625 0)"/>
      </g>
     </g>
    </g>
    <g id="text_16">
     <!-- expected false alarms per shift (E[m·α]) -->
     <g style="fill: #58595a" transform="translate(18.383683 225.667579) rotate(-90) scale(0.095 -0.095)">
      <defs>
       <path id="DejaVuSans-5b" d="M 3513 3500 
L 2247 1797 
L 3578 0 
L 2900 0 
L 1881 1375 
L 863 0 
L 184 0 
L 1544 1831 
L 300 3500 
L 978 3500 
L 1906 2253 
L 2834 3500 
L 3513 3500 
z
" transform="scale(0.015625)"/>
       <path id="DejaVuSans-53" d="M 1159 525 
L 1159 -1331 
L 581 -1331 
L 581 3500 
L 1159 3500 
L 1159 2969 
Q 1341 3281 1617 3432 
Q 1894 3584 2278 3584 
Q 2916 3584 3314 3078 
Q 3713 2572 3713 1747 
Q 3713 922 3314 415 
Q 2916 -91 2278 -91 
Q 1894 -91 1617 61 
Q 1341 213 1159 525 
z
M 3116 1747 
Q 3116 2381 2855 2742 
Q 2594 3103 2138 3103 
Q 1681 3103 1420 2742 
Q 1159 2381 1159 1747 
Q 1159 1113 1420 752 
Q 1681 391 2138 391 
Q 2594 391 2855 752 
Q 3116 1113 3116 1747 
z
" transform="scale(0.015625)"/>
       <path id="DejaVuSans-49" d="M 2375 4863 
L 2375 4384 
L 1825 4384 
Q 1516 4384 1395 4259 
Q 1275 4134 1275 3809 
L 1275 3500 
L 2222 3500 
L 2222 3053 
L 1275 3053 
L 1275 0 
L 697 0 
L 697 3053 
L 147 3053 
L 147 3500 
L 697 3500 
L 697 3744 
Q 697 4328 969 4595 
Q 1241 4863 1831 4863 
L 2375 4863 
z
" transform="scale(0.015625)"/>
       <path id="DejaVuSans-4f" d="M 603 4863 
L 1178 4863 
L 1178 0 
L 603 0 
L 603 4863 
z
" transform="scale(0.015625)"/>
       <path id="DejaVuSans-28" d="M 628 4666 
L 3578 4666 
L 3578 4134 
L 1259 4134 
L 1259 2753 
L 3481 2753 
L 3481 2222 
L 1259 2222 
L 1259 531 
L 3634 531 
L 3634 0 
L 628 0 
L 628 4666 
z
" transform="scale(0.015625)"/>
       <path id="DejaVuSans-3e" d="M 550 4863 
L 1875 4863 
L 1875 4416 
L 1125 4416 
L 1125 -397 
L 1875 -397 
L 1875 -844 
L 550 -844 
L 550 4863 
z
" transform="scale(0.015625)"/>
       <path id="DejaVuSans-79" d="M 684 2619 
L 1344 2619 
L 1344 1825 
L 684 1825 
L 684 2619 
z
" transform="scale(0.015625)"/>
       <path id="DejaVuSans-345" d="M 2644 1628 
L 2506 2350 
Q 2366 3091 1809 3091 
Q 1391 3091 1200 2747 
Q 959 2316 959 1747 
Q 959 1059 1194 731 
Q 1431 397 1809 397 
Q 2228 397 2453 1063 
L 2644 1628 
z
M 2966 2584 
L 3275 3500 
L 3788 3500 
L 3147 1603 
L 3272 919 
Q 3300 766 3409 638 
Q 3538 488 3638 488 
L 3913 488 
L 3913 0 
L 3569 0 
Q 3275 0 3013 263 
Q 2884 394 2831 669 
Q 2688 322 2394 50 
Q 2256 -78 1809 -78 
Q 1075 -78 719 397 
Q 353 888 353 1747 
Q 353 2666 750 3097 
Q 1191 3578 1809 3578 
Q 2781 3578 2966 2584 
z
" transform="scale(0.015625)"/>
       <path id="DejaVuSans-40" d="M 1947 4863 
L 1947 -844 
L 622 -844 
L 622 -397 
L 1369 -397 
L 1369 4416 
L 622 4416 
L 622 4863 
L 1947 4863 
z
" transform="scale(0.015625)"/>
      </defs>
      <use xlink:href="#DejaVuSans-48"/>
      <use xlink:href="#DejaVuSans-5b" transform="translate(59.78125 0)"/>
      <use xlink:href="#DejaVuSans-53" transform="translate(118.96875 0)"/>
      <use xlink:href="#DejaVuSans-48" transform="translate(182.453125 0)"/>
      <use xlink:href="#DejaVuSans-46" transform="translate(243.984375 0)"/>
      <use xlink:href="#DejaVuSans-57" transform="translate(298.96875 0)"/>
      <use xlink:href="#DejaVuSans-48" transform="translate(338.171875 0)"/>
      <use xlink:href="#DejaVuSans-47" transform="translate(399.703125 0)"/>
      <use xlink:href="#DejaVuSans-3" transform="translate(463.1875 0)"/>
      <use xlink:href="#DejaVuSans-49" transform="translate(494.96875 0)"/>
      <use xlink:href="#DejaVuSans-44" transform="translate(530.171875 0)"/>
      <use xlink:href="#DejaVuSans-4f" transform="translate(591.453125 0)"/>
      <use xlink:href="#DejaVuSans-56" transform="translate(619.234375 0)"/>
      <use xlink:href="#DejaVuSans-48" transform="translate(671.328125 0)"/>
      <use xlink:href="#DejaVuSans-3" transform="translate(732.859375 0)"/>
      <use xlink:href="#DejaVuSans-44" transform="translate(764.640625 0)"/>
      <use xlink:href="#DejaVuSans-4f" transform="translate(825.921875 0)"/>
      <use xlink:href="#DejaVuSans-44" transform="translate(853.703125 0)"/>
      <use xlink:href="#DejaVuSans-55" transform="translate(914.984375 0)"/>
      <use xlink:href="#DejaVuSans-50" transform="translate(954.34375 0)"/>
      <use xlink:href="#DejaVuSans-56" transform="translate(1051.75 0)"/>
      <use xlink:href="#DejaVuSans-3" transform="translate(1103.84375 0)"/>
      <use xlink:href="#DejaVuSans-53" transform="translate(1135.625 0)"/>
      <use xlink:href="#DejaVuSans-48" transform="translate(1199.109375 0)"/>
      <use xlink:href="#DejaVuSans-55" transform="translate(1260.640625 0)"/>
      <use xlink:href="#DejaVuSans-3" transform="translate(1301.75 0)"/>
      <use xlink:href="#DejaVuSans-56" transform="translate(1333.53125 0)"/>
      <use xlink:href="#DejaVuSans-4b" transform="translate(1385.625 0)"/>
      <use xlink:href="#DejaVuSans-4c" transform="translate(1449 0)"/>
      <use xlink:href="#DejaVuSans-49" transform="translate(1476.78125 0)"/>
      <use xlink:href="#DejaVuSans-57" transform="translate(1510.234375 0)"/>
      <use xlink:href="#DejaVuSans-3" transform="translate(1549.4375 0)"/>
      <use xlink:href="#DejaVuSans-b" transform="translate(1581.21875 0)"/>
      <use xlink:href="#DejaVuSans-28" transform="translate(1620.234375 0)"/>
      <use xlink:href="#DejaVuSans-3e" transform="translate(1683.421875 0)"/>
      <use xlink:href="#DejaVuSans-50" transform="translate(1722.4375 0)"/>
      <use xlink:href="#DejaVuSans-79" transform="translate(1819.84375 0)"/>
      <use xlink:href="#DejaVuSans-345" transform="translate(1851.625 0)"/>
      <use xlink:href="#DejaVuSans-40" transform="translate(1917.546875 0)"/>
      <use xlink:href="#DejaVuSans-c" transform="translate(1956.5625 0)"/>
     </g>
    </g>
   </g>
   <g id="line2d_15">
    <path d="M 60.173003 226.420442 
L 75.955096 220.540883 
L 107.519284 208.781766 
L 202.211846 173.504416 
L 360.032782 114.708832 
L 423.161157 91.190599 
L 517.853719 55.913249 
" clip-path="url(#p71968efeee)" style="fill: none; stroke: #2e2f31; stroke-width: 2; stroke-linecap: square"/>
    <defs>
     <path id="m74b0b4242d" d="M 0 3 
C 0.795609 3 1.55874 2.683901 2.12132 2.12132 
C 2.683901 1.55874 3 0.795609 3 0 
C 3 -0.795609 2.683901 -1.55874 2.12132 -2.12132 
C 1.55874 -2.683901 0.795609 -3 0 -3 
C -0.795609 -3 -1.55874 -2.683901 -2.12132 -2.12132 
C -2.683901 -1.55874 -3 -0.795609 -3 0 
C -3 0.795609 -2.683901 1.55874 -2.12132 2.12132 
C -1.55874 2.683901 -0.795609 3 0 3 
z
" style="stroke: #2e2f31"/>
    </defs>
    <g clip-path="url(#p71968efeee)">
     <use xlink:href="#m74b0b4242d" x="60.173003" y="226.420442" style="fill: #2e2f31; stroke: #2e2f31"/>
     <use xlink:href="#m74b0b4242d" x="75.955096" y="220.540883" style="fill: #2e2f31; stroke: #2e2f31"/>
     <use xlink:href="#m74b0b4242d" x="107.519284" y="208.781766" style="fill: #2e2f31; stroke: #2e2f31"/>
     <use xlink:href="#m74b0b4242d" x="202.211846" y="173.504416" style="fill: #2e2f31; stroke: #2e2f31"/>
     <use xlink:href="#m74b0b4242d" x="360.032782" y="114.708832" style="fill: #2e2f31; stroke: #2e2f31"/>
     <use xlink:href="#m74b0b4242d" x="423.161157" y="91.190599" style="fill: #2e2f31; stroke: #2e2f31"/>
     <use xlink:href="#m74b0b4242d" x="517.853719" y="55.913249" style="fill: #2e2f31; stroke: #2e2f31"/>
    </g>
   </g>
   <g id="line2d_16">
    <path d="M 517.853719 232.3 
L 517.853719 29.455236 
" clip-path="url(#p71968efeee)" style="fill: none; stroke-dasharray: 0.9,1.485; stroke-dashoffset: 0; stroke: #7a7a7a; stroke-width: 0.9"/>
   </g>
   <g id="patch_3">
    <path d="M 44.390909 232.3 
L 44.390909 29.455236 
" style="fill: none; stroke: #7a7a7a; stroke-width: 0.8; stroke-linejoin: miter; stroke-linecap: square"/>
   </g>
   <g id="patch_4">
    <path d="M 565.2 232.3 
L 565.2 29.455236 
" style="fill: none; stroke: #7a7a7a; stroke-width: 0.8; stroke-linejoin: miter; stroke-linecap: square"/>
   </g>
   <g id="patch_5">
    <path d="M 44.390909 232.3 
L 565.2 232.3 
" style="fill: none; stroke: #7a7a7a; stroke-width: 0.8; stroke-linejoin: miter; stroke-linecap: square"/>
   </g>
   <g id="patch_6">
    <path d="M 44.390909 29.455236 
L 565.2 29.455236 
" style="fill: none; stroke: #7a7a7a; stroke-width: 0.8; stroke-linejoin: miter; stroke-linecap: square"/>
   </g>
   <g id="patch_7">
    <path d="M 449.971562 34.68125 
Q 482.957634 44.998545 514.983354 55.015464 
" style="fill: none; stroke: #7a7a7a; stroke-width: 0.9; stroke-linecap: round"/>
    <path d="M 512.245855 52.378021 
L 514.983354 55.015464 
L 511.230901 55.622997 
" style="fill: none; stroke: #7a7a7a; stroke-width: 0.9; stroke-linecap: round"/>
   </g>
   <g id="text_17">
    <!-- production scale -->
    <g style="fill: #58595a" transform="translate(375.814876 19.579554) scale(0.085 -0.085)">
     <use xlink:href="#DejaVuSans-53"/>
     <use xlink:href="#DejaVuSans-55" transform="translate(63.484375 0)"/>
     <use xlink:href="#DejaVuSans-52" transform="translate(102.390625 0)"/>
     <use xlink:href="#DejaVuSans-47" transform="translate(163.578125 0)"/>
     <use xlink:href="#DejaVuSans-58" transform="translate(227.0625 0)"/>
     <use xlink:href="#DejaVuSans-46" transform="translate(290.4375 0)"/>
     <use xlink:href="#DejaVuSans-57" transform="translate(345.421875 0)"/>
     <use xlink:href="#DejaVuSans-4c" transform="translate(384.625 0)"/>
     <use xlink:href="#DejaVuSans-52" transform="translate(412.40625 0)"/>
     <use xlink:href="#DejaVuSans-51" transform="translate(473.59375 0)"/>
     <use xlink:href="#DejaVuSans-3" transform="translate(536.96875 0)"/>
     <use xlink:href="#DejaVuSans-56" transform="translate(568.75 0)"/>
     <use xlink:href="#DejaVuSans-46" transform="translate(620.84375 0)"/>
     <use xlink:href="#DejaVuSans-44" transform="translate(675.828125 0)"/>
     <use xlink:href="#DejaVuSans-4f" transform="translate(737.109375 0)"/>
     <use xlink:href="#DejaVuSans-48" transform="translate(764.890625 0)"/>
    </g>
    <!-- 40.5 / shift -->
    <g style="fill: #58595a" transform="translate(375.814876 29.781878) scale(0.085 -0.085)">
     <defs>
      <path id="DejaVuSans-11" d="M 684 794 
L 1344 794 
L 1344 0 
L 684 0 
L 684 794 
z
" transform="scale(0.015625)"/>
      <path id="DejaVuSans-18" d="M 691 4666 
L 3169 4666 
L 3169 4134 
L 1269 4134 
L 1269 2991 
Q 1406 3038 1543 3061 
Q 1681 3084 1819 3084 
Q 2600 3084 3056 2656 
Q 3513 2228 3513 1497 
Q 3513 744 3044 326 
Q 2575 -91 1722 -91 
Q 1428 -91 1123 -41 
Q 819 9 494 109 
L 494 744 
Q 775 591 1075 516 
Q 1375 441 1709 441 
Q 2250 441 2565 725 
Q 2881 1009 2881 1497 
Q 2881 1984 2565 2268 
Q 2250 2553 1709 2553 
Q 1456 2553 1204 2497 
Q 953 2441 691 2322 
L 691 4666 
z
" transform="scale(0.015625)"/>
      <path id="DejaVuSans-12" d="M 1625 4666 
L 2156 4666 
L 531 -594 
L 0 -594 
L 1625 4666 
z
" transform="scale(0.015625)"/>
     </defs>
     <use xlink:href="#DejaVuSans-17"/>
     <use xlink:href="#DejaVuSans-13" transform="translate(63.625 0)"/>
     <use xlink:href="#DejaVuSans-11" transform="translate(127.25 0)"/>
     <use xlink:href="#DejaVuSans-18" transform="translate(159.03125 0)"/>
     <use xlink:href="#DejaVuSans-3" transform="translate(222.65625 0)"/>
     <use xlink:href="#DejaVuSans-12" transform="translate(254.4375 0)"/>
     <use xlink:href="#DejaVuSans-3" transform="translate(288.125 0)"/>
     <use xlink:href="#DejaVuSans-56" transform="translate(319.90625 0)"/>
     <use xlink:href="#DejaVuSans-4b" transform="translate(372 0)"/>
     <use xlink:href="#DejaVuSans-4c" transform="translate(435.375 0)"/>
     <use xlink:href="#DejaVuSans-49" transform="translate(463.15625 0)"/>
     <use xlink:href="#DejaVuSans-57" transform="translate(496.609375 0)"/>
    </g>
   </g>
   <g id="text_18">
    <!-- Multiplicity at scale: unadjusted 3σ X-bar charts -->
    <g style="fill: #2e2f31" transform="translate(44.390909 21.455236) scale(0.11 -0.11)">
     <defs>
      <path id="DejaVuSans-30" d="M 628 4666 
L 1569 4666 
L 2759 1491 
L 3956 4666 
L 4897 4666 
L 4897 0 
L 4281 0 
L 4281 4097 
L 3078 897 
L 2444 897 
L 1241 4097 
L 1241 0 
L 628 0 
L 628 4666 
z
" transform="scale(0.015625)"/>
      <path id="DejaVuSans-5c" d="M 2059 -325 
Q 1816 -950 1584 -1140 
Q 1353 -1331 966 -1331 
L 506 -1331 
L 506 -850 
L 844 -850 
Q 1081 -850 1212 -737 
Q 1344 -625 1503 -206 
L 1606 56 
L 191 3500 
L 800 3500 
L 1894 763 
L 2988 3500 
L 3597 3500 
L 2059 -325 
z
" transform="scale(0.015625)"/>
      <path id="DejaVuSans-1d" d="M 750 794 
L 1409 794 
L 1409 0 
L 750 0 
L 750 794 
z
M 750 3309 
L 1409 3309 
L 1409 2516 
L 750 2516 
L 750 3309 
z
" transform="scale(0.015625)"/>
      <path id="DejaVuSans-4d" d="M 603 3500 
L 1178 3500 
L 1178 -63 
Q 1178 -731 923 -1031 
Q 669 -1331 103 -1331 
L -116 -1331 
L -116 -844 
L 38 -844 
Q 366 -844 484 -692 
Q 603 -541 603 -63 
L 603 3500 
z
M 603 4863 
L 1178 4863 
L 1178 4134 
L 603 4134 
L 603 4863 
z
" transform="scale(0.015625)"/>
      <path id="DejaVuSans-357" d="M 1959 3044 
Q 1484 3044 1228 2700 
Q 959 2341 959 1747 
Q 959 1119 1226 758 
Q 1494 397 1959 397 
Q 2419 397 2687 759 
Q 2956 1122 2956 1747 
Q 2956 2319 2688 2700 
Q 2441 3044 1959 3044 
z
M 1959 3500 
L 3869 3500 
L 3869 2925 
L 3225 2925 
Q 3566 2438 3566 1747 
Q 3566 888 3138 400 
Q 2709 -91 1959 -91 
Q 1206 -91 781 400 
Q 353 888 353 1747 
Q 353 2613 781 3097 
Q 1134 3500 1959 3500 
z
" transform="scale(0.015625)"/>
      <path id="DejaVuSans-3b" d="M 403 4666 
L 1081 4666 
L 2241 2931 
L 3406 4666 
L 4084 4666 
L 2584 2425 
L 4184 0 
L 3506 0 
L 2194 1984 
L 872 0 
L 191 0 
L 1856 2491 
L 403 4666 
z
" transform="scale(0.015625)"/>
      <path id="DejaVuSans-10" d="M 313 2009 
L 1997 2009 
L 1997 1497 
L 313 1497 
L 313 2009 
z
" transform="scale(0.015625)"/>
      <path id="DejaVuSans-45" d="M 3116 1747 
Q 3116 2381 2855 2742 
Q 2594 3103 2138 3103 
Q 1681 3103 1420 2742 
Q 1159 2381 1159 1747 
Q 1159 1113 1420 752 
Q 1681 391 2138 391 
Q 2594 391 2855 752 
Q 3116 1113 3116 1747 
z
M 1159 2969 
Q 1341 3281 1617 3432 
Q 1894 3584 2278 3584 
Q 2916 3584 3314 3078 
Q 3713 2572 3713 1747 
Q 3713 922 3314 415 
Q 2916 -91 2278 -91 
Q 1894 -91 1617 61 
Q 1341 213 1159 525 
L 1159 0 
L 581 0 
L 581 4863 
L 1159 4863 
L 1159 2969 
z
" transform="scale(0.015625)"/>
     </defs>
     <use xlink:href="#DejaVuSans-30"/>
     <use xlink:href="#DejaVuSans-58" transform="translate(86.28125 0)"/>
     <use xlink:href="#DejaVuSans-4f" transform="translate(149.65625 0)"/>
     <use xlink:href="#DejaVuSans-57" transform="translate(177.4375 0)"/>
     <use xlink:href="#DejaVuSans-4c" transform="translate(216.640625 0)"/>
     <use xlink:href="#DejaVuSans-53" transform="translate(244.421875 0)"/>
     <use xlink:href="#DejaVuSans-4f" transform="translate(307.90625 0)"/>
     <use xlink:href="#DejaVuSans-4c" transform="translate(335.6875 0)"/>
     <use xlink:href="#DejaVuSans-46" transform="translate(363.46875 0)"/>
     <use xlink:href="#DejaVuSans-4c" transform="translate(418.453125 0)"/>
     <use xlink:href="#DejaVuSans-57" transform="translate(446.234375 0)"/>
     <use xlink:href="#DejaVuSans-5c" transform="translate(485.4375 0)"/>
     <use xlink:href="#DejaVuSans-3" transform="translate(544.625 0)"/>
     <use xlink:href="#DejaVuSans-44" transform="translate(576.40625 0)"/>
     <use xlink:href="#DejaVuSans-57" transform="translate(637.6875 0)"/>
     <use xlink:href="#DejaVuSans-3" transform="translate(676.890625 0)"/>
     <use xlink:href="#DejaVuSans-56" transform="translate(708.671875 0)"/>
     <use xlink:href="#DejaVuSans-46" transform="translate(760.765625 0)"/>
     <use xlink:href="#DejaVuSans-44" transform="translate(815.75 0)"/>
     <use xlink:href="#DejaVuSans-4f" transform="translate(877.03125 0)"/>
     <use xlink:href="#DejaVuSans-48" transform="translate(904.8125 0)"/>
     <use xlink:href="#DejaVuSans-1d" transform="translate(966.34375 0)"/>
     <use xlink:href="#DejaVuSans-3" transform="translate(1000.03125 0)"/>
     <use xlink:href="#DejaVuSans-58" transform="translate(1031.8125 0)"/>
     <use xlink:href="#DejaVuSans-51" transform="translate(1095.1875 0)"/>
     <use xlink:href="#DejaVuSans-44" transform="translate(1158.5625 0)"/>
     <use xlink:href="#DejaVuSans-47" transform="translate(1219.84375 0)"/>
     <use xlink:href="#DejaVuSans-4d" transform="translate(1283.328125 0)"/>
     <use xlink:href="#DejaVuSans-58" transform="translate(1311.109375 0)"/>
     <use xlink:href="#DejaVuSans-56" transform="translate(1374.484375 0)"/>
     <use xlink:href="#DejaVuSans-57" transform="translate(1426.578125 0)"/>
     <use xlink:href="#DejaVuSans-48" transform="translate(1465.78125 0)"/>
     <use xlink:href="#DejaVuSans-47" transform="translate(1527.3125 0)"/>
     <use xlink:href="#DejaVuSans-3" transform="translate(1590.796875 0)"/>
     <use xlink:href="#DejaVuSans-16" transform="translate(1622.578125 0)"/>
     <use xlink:href="#DejaVuSans-357" transform="translate(1686.203125 0)"/>
     <use xlink:href="#DejaVuSans-3" transform="translate(1749.578125 0)"/>
     <use xlink:href="#DejaVuSans-3b" transform="translate(1781.359375 0)"/>
     <use xlink:href="#DejaVuSans-10" transform="translate(1844.875 0)"/>
     <use xlink:href="#DejaVuSans-45" transform="translate(1880.953125 0)"/>
     <use xlink:href="#DejaVuSans-44" transform="translate(1944.4375 0)"/>
     <use xlink:href="#DejaVuSans-55" transform="translate(2005.71875 0)"/>
     <use xlink:href="#DejaVuSans-3" transform="translate(2046.828125 0)"/>
     <use xlink:href="#DejaVuSans-46" transform="translate(2078.609375 0)"/>
     <use xlink:href="#DejaVuSans-4b" transform="translate(2133.59375 0)"/>
     <use xlink:href="#DejaVuSans-44" transform="translate(2196.96875 0)"/>
     <use xlink:href="#DejaVuSans-55" transform="translate(2258.25 0)"/>
     <use xlink:href="#DejaVuSans-57" transform="translate(2299.359375 0)"/>
     <use xlink:href="#DejaVuSans-56" transform="translate(2338.5625 0)"/>
    </g>
   </g>
   <g id="PathCollection_1">
    <defs>
     <path id="md7f8c0d742" d="M 0 4.1833 
C 1.109424 4.1833 2.173559 3.742521 2.95804 2.95804 
C 3.742521 2.173559 4.1833 1.109424 4.1833 0 
C 4.1833 -1.109424 3.742521 -2.173559 2.95804 -2.95804 
C 2.173559 -3.742521 1.109424 -4.1833 0 -4.1833 
C -1.109424 -4.1833 -2.173559 -3.742521 -2.95804 -2.95804 
C -3.742521 -2.173559 -4.1833 -1.109424 -4.1833 0 
C -4.1833 1.109424 -3.742521 2.173559 -2.95804 2.95804 
C -2.173559 3.742521 -1.109424 4.1833 0 4.1833 
z
" style="stroke: #c0392b"/>
    </defs>
    <g clip-path="url(#p71968efeee)">
     <use xlink:href="#md7f8c0d742" x="517.853719" y="55.913249" style="fill: #c0392b; stroke: #c0392b"/>
    </g>
   </g>
  </g>
 </g>
 <defs>
  <clipPath id="p71968efeee">
   <rect x="44.390909" y="29.455236" width="520.809091" height="202.844764"/>
  </clipPath>
 </defs>
</svg>
