<?xml version="1.0" encoding="utf-8" standalone="no"?>
<!DOCTYPE svg PUBLIC "-//W3C//DTD SVG 1.1//EN"
  "http://www.w3.org/Graphics/SVG/1.1/DTD/svg11.dtd">
<svg xmlns:xlink="http://www.w3.org/1999/xlink" width="547.2pt" height="302.4pt" viewBox="0 0 547.2 302.4" xmlns="http://www.w3.org/2000/svg" version="1.1">
 <metadata>
  <rdf:RDF xmlns:dc="http://purl.org/dc/elements/1.1/" xmlns:cc="http://creativecommons.org/ns#" xmlns:rdf="http://www.w3.org/1999/02/22-rdf-syntax-ns#">
   <cc:Work>
    <dc:type rdf:resource="http://purl.org/dc/dcmitype/StillImage"/>
    <dc:date>2026-07-16T13:09:12.134588</dc:date>
    <dc:format>image/svg+xml</dc:format>
    <dc:creator>
     <cc:Agent>
      <dc:title>Matplotlib v3.10.8, https://matplotlib.org/</dc:title>
     </cc:Agent>
    </dc:creator>
   </cc:Work>
  </rdf:RDF>
 </metadata>
 <defs>
  <style type="text/css">*{stroke-linejoin: round; stroke-linecap: butt}</style>
 </defs>
 <g id="figure_1">
  <g id="patch_1">
   <path d="M 0 302.4 
L 547.2 302.4 
L 547.2 0 
L 0 0 
z
" style="fill: #ffffff"/>
  </g>
  <g id="axes_1">
   <g id="patch_2">
    <path d="M 53.48 137.95 
L 536.4 137.95 
L 536.4 24 
L 53.48 24 
z
" style="fill: #fafafa"/>
   </g>
   <g id="matplotlib.axis_1">
    <g id="xtick_1">
     <g id="line2d_1">
      <path d="M 75.430909 137.95 
L 75.430909 24 
" clip-path="url(#p4dcd45eaa9)" style="fill: none; stroke: #e2e2e2; stroke-opacity: 0.6; stroke-width: 0.6; stroke-linecap: square"/>
     </g>
     <g id="line2d_2">
      <defs>
       <path id="m0a16df1dd6" d="M 0 0 
L 0 3.5 
" style="stroke: #877e72; stroke-width: 0.8"/>
      </defs>
      <g>
       <use xlink:href="#m0a16df1dd6" x="75.430909" y="137.95" style="fill: #877e72; stroke: #877e72; stroke-width: 0.8"/>
      </g>
     </g>
    </g>
    <g id="xtick_2">
     <g id="line2d_3">
      <path d="M 131.715291 137.95 
L 131.715291 24 
" clip-path="url(#p4dcd45eaa9)" style="fill: none; stroke: #e2e2e2; stroke-opacity: 0.6; stroke-width: 0.6; stroke-linecap: square"/>
     </g>
     <g id="line2d_4">
      <g>
       <use xlink:href="#m0a16df1dd6" x="131.715291" y="137.95" style="fill: #877e72; stroke: #877e72; stroke-width: 0.8"/>
      </g>
     </g>
    </g>
    <g id="xtick_3">
     <g id="line2d_5">
      <path d="M 187.999674 137.95 
L 187.999674 24 
" clip-path="url(#p4dcd45eaa9)" style="fill: none; stroke: #e2e2e2; stroke-opacity: 0.6; stroke-width: 0.6; stroke-linecap: square"/>
     </g>
     <g id="line2d_6">
      <g>
       <use xlink:href="#m0a16df1dd6" x="187.999674" y="137.95" style="fill: #877e72; stroke: #877e72; stroke-width: 0.8"/>
      </g>
     </g>
    </g>
    <g id="xtick_4">
     <g id="line2d_7">
      <path d="M 244.284056 137.95 
L 244.284056 24 
" clip-path="url(#p4dcd45eaa9)" style="fill: none; stroke: #e2e2e2; stroke-opacity: 0.6; stroke-width: 0.6; stroke-linecap: square"/>
     </g>
     <g id="line2d_8">
      <g>
       <use xlink:href="#m0a16df1dd6" x="244.284056" y="137.95" style="fill: #877e72; stroke: #877e72; stroke-width: 0.8"/>
      </g>
     </g>
    </g>
    <g id="xtick_5">
     <g id="line2d_9">
      <path d="M 300.568438 137.95 
L 300.568438 24 
" clip-path="url(#p4dcd45eaa9)" style="fill: none; stroke: #e2e2e2; stroke-opacity: 0.6; stroke-width: 0.6; stroke-linecap: square"/>
     </g>
     <g id="line2d_10">
      <g>
       <use xlink:href="#m0a16df1dd6" x="300.568438" y="137.95" style="fill: #877e72; stroke: #877e72; stroke-width: 0.8"/>
      </g>
     </g>
    </g>
    <g id="xtick_6">
     <g id="line2d_11">
      <path d="M 356.852821 137.95 
L 356.852821 24 
" clip-path="url(#p4dcd45eaa9)" style="fill: none; stroke: #e2e2e2; stroke-opacity: 0.6; stroke-width: 0.6; stroke-linecap: square"/>
     </g>
     <g id="line2d_12">
      <g>
       <use xlink:href="#m0a16df1dd6" x="356.852821" y="137.95" style="fill: #877e72; stroke: #877e72; stroke-width: 0.8"/>
      </g>
     </g>
    </g>
    <g id="xtick_7">
     <g id="line2d_13">
      <path d="M 413.137203 137.95 
L 413.137203 24 
" clip-path="url(#p4dcd45eaa9)" style="fill: none; stroke: #e2e2e2; stroke-opacity: 0.6; stroke-width: 0.6; stroke-linecap: square"/>
     </g>
     <g id="line2d_14">
      <g>
       <use xlink:href="#m0a16df1dd6" x="413.137203" y="137.95" style="fill: #877e72; stroke: #877e72; stroke-width: 0.8"/>
      </g>
     </g>
    </g>
    <g id="xtick_8">
     <g id="line2d_15">
      <path d="M 469.421585 137.95 
L 469.421585 24 
" clip-path="url(#p4dcd45eaa9)" style="fill: none; stroke: #e2e2e2; stroke-opacity: 0.6; stroke-width: 0.6; stroke-linecap: square"/>
     </g>
     <g id="line2d_16">
      <g>
       <use xlink:href="#m0a16df1dd6" x="469.421585" y="137.95" style="fill: #877e72; stroke: #877e72; stroke-width: 0.8"/>
      </g>
     </g>
    </g>
    <g id="xtick_9">
     <g id="line2d_17">
      <path d="M 525.705967 137.95 
L 525.705967 24 
" clip-path="url(#p4dcd45eaa9)" style="fill: none; stroke: #e2e2e2; stroke-opacity: 0.6; stroke-width: 0.6; stroke-linecap: square"/>
     </g>
     <g id="line2d_18">
      <g>
       <use xlink:href="#m0a16df1dd6" x="525.705967" y="137.95" style="fill: #877e72; stroke: #877e72; stroke-width: 0.8"/>
      </g>
     </g>
    </g>
   </g>
   <g id="matplotlib.axis_2">
    <g id="ytick_1">
     <g id="line2d_19">
      <path d="M 53.48 128.331947 
L 536.4 128.331947 
" clip-path="url(#p4dcd45eaa9)" style="fill: none; stroke: #e2e2e2; stroke-opacity: 0.6; stroke-width: 0.6; stroke-linecap: square"/>
     </g>
     <g id="line2d_20">
      <defs>
       <path id="m0c0fbe446a" d="M 0 0 
L -3.5 0 
" style="stroke: #877e72; stroke-width: 0.8"/>
      </defs>
      <g>
       <use xlink:href="#m0c0fbe446a" x="53.48" y="128.331947" style="fill: #877e72; stroke: #877e72; stroke-width: 0.8"/>
      </g>
     </g>
     <g id="text_1">
      <!-- −0.1 -->
      <g style="fill: #877e72" transform="translate(27.05375 131.371322) scale(0.08 -0.08)">
       <defs>
        <path id="DejaVuSans-2212" d="M 678 2272 
L 4684 2272 
L 4684 1741 
L 678 1741 
L 678 2272 
z
" transform="scale(0.015625)"/>
        <path id="DejaVuSans-30" d="M 2034 4250 
Q 1547 4250 1301 3770 
Q 1056 3291 1056 2328 
Q 1056 1369 1301 889 
Q 1547 409 2034 409 
Q 2525 409 2770 889 
Q 3016 1369 3016 2328 
Q 3016 3291 2770 3770 
Q 2525 4250 2034 4250 
z
M 2034 4750 
Q 2819 4750 3233 4129 
Q 3647 3509 3647 2328 
Q 3647 1150 3233 529 
Q 2819 -91 2034 -91 
Q 1250 -91 836 529 
Q 422 1150 422 2328 
Q 422 3509 836 4129 
Q 1250 4750 2034 4750 
z
" transform="scale(0.015625)"/>
        <path id="DejaVuSans-2e" d="M 684 794 
L 1344 794 
L 1344 0 
L 684 0 
L 684 794 
z
" transform="scale(0.015625)"/>
        <path id="DejaVuSans-31" d="M 794 531 
L 1825 531 
L 1825 4091 
L 703 3866 
L 703 4441 
L 1819 4666 
L 2450 4666 
L 2450 531 
L 3481 531 
L 3481 0 
L 794 0 
L 794 531 
z
" transform="scale(0.015625)"/>
       </defs>
       <use xlink:href="#DejaVuSans-2212"/>
       <use xlink:href="#DejaVuSans-30" transform="translate(83.789062 0)"/>
       <use xlink:href="#DejaVuSans-2e" transform="translate(147.412109 0)"/>
       <use xlink:href="#DejaVuSans-31" transform="translate(179.199219 0)"/>
      </g>
     </g>
    </g>
    <g id="ytick_2">
     <g id="line2d_21">
      <path d="M 53.48 101.517445 
L 536.4 101.517445 
" clip-path="url(#p4dcd45eaa9)" style="fill: none; stroke: #e2e2e2; stroke-opacity: 0.6; stroke-width: 0.6; stroke-linecap: square"/>
     </g>
     <g id="line2d_22">
      <g>
       <use xlink:href="#m0c0fbe446a" x="53.48" y="101.517445" style="fill: #877e72; stroke: #877e72; stroke-width: 0.8"/>
      </g>
     </g>
     <g id="text_2">
      <!-- 0.0 -->
      <g style="fill: #877e72" transform="translate(33.7575 104.55682) scale(0.08 -0.08)">
       <use xlink:href="#DejaVuSans-30"/>
       <use xlink:href="#DejaVuSans-2e" transform="translate(63.623047 0)"/>
       <use xlink:href="#DejaVuSans-30" transform="translate(95.410156 0)"/>
      </g>
     </g>
    </g>
    <g id="ytick_3">
     <g id="line2d_23">
      <path d="M 53.48 74.702944 
L 536.4 74.702944 
" clip-path="url(#p4dcd45eaa9)" style="fill: none; stroke: #e2e2e2; stroke-opacity: 0.6; stroke-width: 0.6; stroke-linecap: square"/>
     </g>
     <g id="line2d_24">
      <g>
       <use xlink:href="#m0c0fbe446a" x="53.48" y="74.702944" style="fill: #877e72; stroke: #877e72; stroke-width: 0.8"/>
      </g>
     </g>
     <g id="text_3">
      <!-- 0.1 -->
      <g style="fill: #877e72" transform="translate(33.7575 77.742319) scale(0.08 -0.08)">
       <use xlink:href="#DejaVuSans-30"/>
       <use xlink:href="#DejaVuSans-2e" transform="translate(63.623047 0)"/>
       <use xlink:href="#DejaVuSans-31" transform="translate(95.410156 0)"/>
      </g>
     </g>
    </g>
    <g id="ytick_4">
     <g id="line2d_25">
      <path d="M 53.48 47.888442 
L 536.4 47.888442 
" clip-path="url(#p4dcd45eaa9)" style="fill: none; stroke: #e2e2e2; stroke-opacity: 0.6; stroke-width: 0.6; stroke-linecap: square"/>
     </g>
     <g id="line2d_26">
      <g>
       <use xlink:href="#m0c0fbe446a" x="53.48" y="47.888442" style="fill: #877e72; stroke: #877e72; stroke-width: 0.8"/>
      </g>
     </g>
     <g id="text_4">
      <!-- 0.2 -->
      <g style="fill: #877e72" transform="translate(33.7575 50.927817) scale(0.08 -0.08)">
       <defs>
        <path id="DejaVuSans-32" d="M 1228 531 
L 3431 531 
L 3431 0 
L 469 0 
L 469 531 
Q 828 903 1448 1529 
Q 2069 2156 2228 2338 
Q 2531 2678 2651 2914 
Q 2772 3150 2772 3378 
Q 2772 3750 2511 3984 
Q 2250 4219 1831 4219 
Q 1534 4219 1204 4116 
Q 875 4013 500 3803 
L 500 4441 
Q 881 4594 1212 4672 
Q 1544 4750 1819 4750 
Q 2544 4750 2975 4387 
Q 3406 4025 3406 3419 
Q 3406 3131 3298 2873 
Q 3191 2616 2906 2266 
Q 2828 2175 2409 1742 
Q 1991 1309 1228 531 
z
" transform="scale(0.015625)"/>
       </defs>
       <use xlink:href="#DejaVuSans-30"/>
       <use xlink:href="#DejaVuSans-2e" transform="translate(63.623047 0)"/>
       <use xlink:href="#DejaVuSans-32" transform="translate(95.410156 0)"/>
      </g>
     </g>
    </g>
    <g id="text_5">
     <!-- X̄ -->
     <g transform="translate(21.39 83.715) rotate(-90) scale(0.08 -0.08)">
      <defs>
       <path id="DejaVuSans-58" d="M 403 4666 
L 1081 4666 
L 2241 2931 
L 3406 4666 
L 4084 4666 
L 2584 2425 
L 4184 0 
L 3506 0 
L 2194 1984 
L 872 0 
L 191 0 
L 1856 2491 
L 403 4666 
z
" transform="scale(0.015625)"/>
       <path id="DejaVuSans-304" d="M -2518 4769 
L -650 4769 
L -650 4306 
L -2518 4306 
L -2518 4769 
z
" transform="scale(0.015625)"/>
      </defs>
      <use xlink:href="#DejaVuSans-58"/>
      <use xlink:href="#DejaVuSans-304" transform="translate(68.505859 0)"/>
     </g>
    </g>
   </g>
   <g id="line2d_27">
    <path d="M 75.430909 94.500693 
L 86.687786 108.735404 
L 97.944662 80.728576 
L 109.201538 97.410478 
L 120.458415 111.99278 
L 131.715291 86.010164 
L 142.972168 95.759803 
L 154.229044 129.100327 
L 165.485921 96.279385 
L 176.742797 99.196354 
L 187.999674 80.498716 
L 199.25655 125.493834 
L 210.513427 116.035576 
L 221.770303 128.328675 
L 233.027179 98.280493 
L 244.284056 132.770455 
L 255.540932 103.450759 
L 266.797809 75.590661 
L 278.054685 110.659795 
L 289.311562 82.721728 
L 300.568438 53.376447 
L 311.825315 58.942406 
L 323.082191 56.153111 
L 334.339068 77.418988 
L 345.595944 99.383984 
L 356.852821 29.179545 
L 368.109697 68.959446 
L 379.366573 68.17271 
L 390.62345 64.642618 
L 401.880326 38.68014 
L 413.137203 38.773342 
L 424.394079 70.522163 
L 435.650956 36.214761 
L 446.907832 54.747723 
L 458.164709 58.498599 
L 469.421585 92.229118 
L 480.678462 65.25054 
L 491.935338 49.613434 
L 503.192214 53.900977 
L 514.449091 64.410072 
" clip-path="url(#p4dcd45eaa9)" style="fill: none; stroke: #3d3327; stroke-width: 1.2; stroke-linecap: square"/>
    <defs>
     <path id="m0944385f6a" d="M 0 2 
C 0.530406 2 1.03916 1.789267 1.414214 1.414214 
C 1.789267 1.03916 2 0.530406 2 0 
C 2 -0.530406 1.789267 -1.03916 1.414214 -1.414214 
C 1.03916 -1.789267 0.530406 -2 0 -2 
C -0.530406 -2 -1.03916 -1.789267 -1.414214 -1.414214 
C -1.789267 -1.03916 -2 -0.530406 -2 0 
C -2 0.530406 -1.789267 1.03916 -1.414214 1.414214 
C -1.03916 1.789267 -0.530406 2 0 2 
z
" style="stroke: #3d3327"/>
    </defs>
    <g clip-path="url(#p4dcd45eaa9)">
     <use xlink:href="#m0944385f6a" x="75.430909" y="94.500693" style="fill: #3d3327; stroke: #3d3327"/>
     <use xlink:href="#m0944385f6a" x="86.687786" y="108.735404" style="fill: #3d3327; stroke: #3d3327"/>
     <use xlink:href="#m0944385f6a" x="97.944662" y="80.728576" style="fill: #3d3327; stroke: #3d3327"/>
     <use xlink:href="#m0944385f6a" x="109.201538" y="97.410478" style="fill: #3d3327; stroke: #3d3327"/>
     <use xlink:href="#m0944385f6a" x="120.458415" y="111.99278" style="fill: #3d3327; stroke: #3d3327"/>
     <use xlink:href="#m0944385f6a" x="131.715291" y="86.010164" style="fill: #3d3327; stroke: #3d3327"/>
     <use xlink:href="#m0944385f6a" x="142.972168" y="95.759803" style="fill: #3d3327; stroke: #3d3327"/>
     <use xlink:href="#m0944385f6a" x="154.229044" y="129.100327" style="fill: #3d3327; stroke: #3d3327"/>
     <use xlink:href="#m0944385f6a" x="165.485921" y="96.279385" style="fill: #3d3327; stroke: #3d3327"/>
     <use xlink:href="#m0944385f6a" x="176.742797" y="99.196354" style="fill: #3d3327; stroke: #3d3327"/>
     <use xlink:href="#m0944385f6a" x="187.999674" y="80.498716" style="fill: #3d3327; stroke: #3d3327"/>
     <use xlink:href="#m0944385f6a" x="199.25655" y="125.493834" style="fill: #3d3327; stroke: #3d3327"/>
     <use xlink:href="#m0944385f6a" x="210.513427" y="116.035576" style="fill: #3d3327; stroke: #3d3327"/>
     <use xlink:href="#m0944385f6a" x="221.770303" y="128.328675" style="fill: #3d3327; stroke: #3d3327"/>
     <use xlink:href="#m0944385f6a" x="233.027179" y="98.280493" style="fill: #3d3327; stroke: #3d3327"/>
     <use xlink:href="#m0944385f6a" x="244.284056" y="132.770455" style="fill: #3d3327; stroke: #3d3327"/>
     <use xlink:href="#m0944385f6a" x="255.540932" y="103.450759" style="fill: #3d3327; stroke: #3d3327"/>
     <use xlink:href="#m0944385f6a" x="266.797809" y="75.590661" style="fill: #3d3327; stroke: #3d3327"/>
     <use xlink:href="#m0944385f6a" x="278.054685" y="110.659795" style="fill: #3d3327; stroke: #3d3327"/>
     <use xlink:href="#m0944385f6a" x="289.311562" y="82.721728" style="fill: #3d3327; stroke: #3d3327"/>
     <use xlink:href="#m0944385f6a" x="300.568438" y="53.376447" style="fill: #3d3327; stroke: #3d3327"/>
     <use xlink:href="#m0944385f6a" x="311.825315" y="58.942406" style="fill: #3d3327; stroke: #3d3327"/>
     <use xlink:href="#m0944385f6a" x="323.082191" y="56.153111" style="fill: #3d3327; stroke: #3d3327"/>
     <use xlink:href="#m0944385f6a" x="334.339068" y="77.418988" style="fill: #3d3327; stroke: #3d3327"/>
     <use xlink:href="#m0944385f6a" x="345.595944" y="99.383984" style="fill: #3d3327; stroke: #3d3327"/>
     <use xlink:href="#m0944385f6a" x="356.852821" y="29.179545" style="fill: #3d3327; stroke: #3d3327"/>
     <use xlink:href="#m0944385f6a" x="368.109697" y="68.959446" style="fill: #3d3327; stroke: #3d3327"/>
     <use xlink:href="#m0944385f6a" x="379.366573" y="68.17271" style="fill: #3d3327; stroke: #3d3327"/>
     <use xlink:href="#m0944385f6a" x="390.62345" y="64.642618" style="fill: #3d3327; stroke: #3d3327"/>
     <use xlink:href="#m0944385f6a" x="401.880326" y="38.68014" style="fill: #3d3327; stroke: #3d3327"/>
     <use xlink:href="#m0944385f6a" x="413.137203" y="38.773342" style="fill: #3d3327; stroke: #3d3327"/>
     <use xlink:href="#m0944385f6a" x="424.394079" y="70.522163" style="fill: #3d3327; stroke: #3d3327"/>
     <use xlink:href="#m0944385f6a" x="435.650956" y="36.214761" style="fill: #3d3327; stroke: #3d3327"/>
     <use xlink:href="#m0944385f6a" x="446.907832" y="54.747723" style="fill: #3d3327; stroke: #3d3327"/>
     <use xlink:href="#m0944385f6a" x="458.164709" y="58.498599" style="fill: #3d3327; stroke: #3d3327"/>
     <use xlink:href="#m0944385f6a" x="469.421585" y="92.229118" style="fill: #3d3327; stroke: #3d3327"/>
     <use xlink:href="#m0944385f6a" x="480.678462" y="65.25054" style="fill: #3d3327; stroke: #3d3327"/>
     <use xlink:href="#m0944385f6a" x="491.935338" y="49.613434" style="fill: #3d3327; stroke: #3d3327"/>
     <use xlink:href="#m0944385f6a" x="503.192214" y="53.900977" style="fill: #3d3327; stroke: #3d3327"/>
     <use xlink:href="#m0944385f6a" x="514.449091" y="64.410072" style="fill: #3d3327; stroke: #3d3327"/>
    </g>
   </g>
   <g id="line2d_28">
    <path d="M 53.48 101.517445 
L 536.4 101.517445 
" clip-path="url(#p4dcd45eaa9)" style="fill: none; stroke: #877e72; stroke-linecap: square"/>
   </g>
   <g id="line2d_29">
    <path d="M 53.48 36.761673 
L 536.4 36.761673 
" clip-path="url(#p4dcd45eaa9)" style="fill: none; stroke-dasharray: 3.7,1.6; stroke-dashoffset: 0; stroke: #8c2f22"/>
   </g>
   <g id="line2d_30">
    <path d="M 300.568438 137.95 
L 300.568438 24 
" clip-path="url(#p4dcd45eaa9)" style="fill: none; stroke-dasharray: 1,1.65; stroke-dashoffset: 0; stroke: #877e72"/>
   </g>
   <g id="patch_3">
    <path d="M 53.48 137.95 
L 53.48 24 
" style="fill: none; stroke: #e2e2e2; stroke-width: 0.8; stroke-linejoin: miter; stroke-linecap: square"/>
   </g>
   <g id="patch_4">
    <path d="M 53.48 137.95 
L 536.4 137.95 
" style="fill: none; stroke: #e2e2e2; stroke-width: 0.8; stroke-linejoin: miter; stroke-linecap: square"/>
   </g>
   <g id="text_6">
    <!-- Step shift at subgroup 20 (2.0σ on X̄ scale) -->
    <g style="fill: #3d3327" transform="translate(53.48 18) scale(0.095 -0.095)">
     <defs>
      <path id="DejaVuSans-53" d="M 3425 4513 
L 3425 3897 
Q 3066 4069 2747 4153 
Q 2428 4238 2131 4238 
Q 1616 4238 1336 4038 
Q 1056 3838 1056 3469 
Q 1056 3159 1242 3001 
Q 1428 2844 1947 2747 
L 2328 2669 
Q 3034 2534 3370 2195 
Q 3706 1856 3706 1288 
Q 3706 609 3251 259 
Q 2797 -91 1919 -91 
Q 1588 -91 1214 -16 
Q 841 59 441 206 
L 441 856 
Q 825 641 1194 531 
Q 1563 422 1919 422 
Q 2459 422 2753 634 
Q 3047 847 3047 1241 
Q 3047 1584 2836 1778 
Q 2625 1972 2144 2069 
L 1759 2144 
Q 1053 2284 737 2584 
Q 422 2884 422 3419 
Q 422 4038 858 4394 
Q 1294 4750 2059 4750 
Q 2388 4750 2728 4690 
Q 3069 4631 3425 4513 
z
" transform="scale(0.015625)"/>
      <path id="DejaVuSans-74" d="M 1172 4494 
L 1172 3500 
L 2356 3500 
L 2356 3053 
L 1172 3053 
L 1172 1153 
Q 1172 725 1289 603 
Q 1406 481 1766 481 
L 2356 481 
L 2356 0 
L 1766 0 
Q 1100 0 847 248 
Q 594 497 594 1153 
L 594 3053 
L 172 3053 
L 172 3500 
L 594 3500 
L 594 4494 
L 1172 4494 
z
" transform="scale(0.015625)"/>
      <path id="DejaVuSans-65" d="M 3597 1894 
L 3597 1613 
L 953 1613 
Q 991 1019 1311 708 
Q 1631 397 2203 397 
Q 2534 397 2845 478 
Q 3156 559 3463 722 
L 3463 178 
Q 3153 47 2828 -22 
Q 2503 -91 2169 -91 
Q 1331 -91 842 396 
Q 353 884 353 1716 
Q 353 2575 817 3079 
Q 1281 3584 2069 3584 
Q 2775 3584 3186 3129 
Q 3597 2675 3597 1894 
z
M 3022 2063 
Q 3016 2534 2758 2815 
Q 2500 3097 2075 3097 
Q 1594 3097 1305 2825 
Q 1016 2553 972 2059 
L 3022 2063 
z
" transform="scale(0.015625)"/>
      <path id="DejaVuSans-70" d="M 1159 525 
L 1159 -1331 
L 581 -1331 
L 581 3500 
L 1159 3500 
L 1159 2969 
Q 1341 3281 1617 3432 
Q 1894 3584 2278 3584 
Q 2916 3584 3314 3078 
Q 3713 2572 3713 1747 
Q 3713 922 3314 415 
Q 2916 -91 2278 -91 
Q 1894 -91 1617 61 
Q 1341 213 1159 525 
z
M 3116 1747 
Q 3116 2381 2855 2742 
Q 2594 3103 2138 3103 
Q 1681 3103 1420 2742 
Q 1159 2381 1159 1747 
Q 1159 1113 1420 752 
Q 1681 391 2138 391 
Q 2594 391 2855 752 
Q 3116 1113 3116 1747 
z
" transform="scale(0.015625)"/>
      <path id="DejaVuSans-20" transform="scale(0.015625)"/>
      <path id="DejaVuSans-73" d="M 2834 3397 
L 2834 2853 
Q 2591 2978 2328 3040 
Q 2066 3103 1784 3103 
Q 1356 3103 1142 2972 
Q 928 2841 928 2578 
Q 928 2378 1081 2264 
Q 1234 2150 1697 2047 
L 1894 2003 
Q 2506 1872 2764 1633 
Q 3022 1394 3022 966 
Q 3022 478 2636 193 
Q 2250 -91 1575 -91 
Q 1294 -91 989 -36 
Q 684 19 347 128 
L 347 722 
Q 666 556 975 473 
Q 1284 391 1588 391 
Q 1994 391 2212 530 
Q 2431 669 2431 922 
Q 2431 1156 2273 1281 
Q 2116 1406 1581 1522 
L 1381 1569 
Q 847 1681 609 1914 
Q 372 2147 372 2553 
Q 372 3047 722 3315 
Q 1072 3584 1716 3584 
Q 2034 3584 2315 3537 
Q 2597 3491 2834 3397 
z
" transform="scale(0.015625)"/>
      <path id="DejaVuSans-68" d="M 3513 2113 
L 3513 0 
L 2938 0 
L 2938 2094 
Q 2938 2591 2744 2837 
Q 2550 3084 2163 3084 
Q 1697 3084 1428 2787 
Q 1159 2491 1159 1978 
L 1159 0 
L 581 0 
L 581 4863 
L 1159 4863 
L 1159 2956 
Q 1366 3272 1645 3428 
Q 1925 3584 2291 3584 
Q 2894 3584 3203 3211 
Q 3513 2838 3513 2113 
z
" transform="scale(0.015625)"/>
      <path id="DejaVuSans-69" d="M 603 3500 
L 1178 3500 
L 1178 0 
L 603 0 
L 603 3500 
z
M 603 4863 
L 1178 4863 
L 1178 4134 
L 603 4134 
L 603 4863 
z
" transform="scale(0.015625)"/>
      <path id="DejaVuSans-66" d="M 2375 4863 
L 2375 4384 
L 1825 4384 
Q 1516 4384 1395 4259 
Q 1275 4134 1275 3809 
L 1275 3500 
L 2222 3500 
L 2222 3053 
L 1275 3053 
L 1275 0 
L 697 0 
L 697 3053 
L 147 3053 
L 147 3500 
L 697 3500 
L 697 3744 
Q 697 4328 969 4595 
Q 1241 4863 1831 4863 
L 2375 4863 
z
" transform="scale(0.015625)"/>
      <path id="DejaVuSans-61" d="M 2194 1759 
Q 1497 1759 1228 1600 
Q 959 1441 959 1056 
Q 959 750 1161 570 
Q 1363 391 1709 391 
Q 2188 391 2477 730 
Q 2766 1069 2766 1631 
L 2766 1759 
L 2194 1759 
z
M 3341 1997 
L 3341 0 
L 2766 0 
L 2766 531 
Q 2569 213 2275 61 
Q 1981 -91 1556 -91 
Q 1019 -91 701 211 
Q 384 513 384 1019 
Q 384 1609 779 1909 
Q 1175 2209 1959 2209 
L 2766 2209 
L 2766 2266 
Q 2766 2663 2505 2880 
Q 2244 3097 1772 3097 
Q 1472 3097 1187 3025 
Q 903 2953 641 2809 
L 641 3341 
Q 956 3463 1253 3523 
Q 1550 3584 1831 3584 
Q 2591 3584 2966 3190 
Q 3341 2797 3341 1997 
z
" transform="scale(0.015625)"/>
      <path id="DejaVuSans-75" d="M 544 1381 
L 544 3500 
L 1119 3500 
L 1119 1403 
Q 1119 906 1312 657 
Q 1506 409 1894 409 
Q 2359 409 2629 706 
Q 2900 1003 2900 1516 
L 2900 3500 
L 3475 3500 
L 3475 0 
L 2900 0 
L 2900 538 
Q 2691 219 2414 64 
Q 2138 -91 1772 -91 
Q 1169 -91 856 284 
Q 544 659 544 1381 
z
M 1991 3584 
L 1991 3584 
z
" transform="scale(0.015625)"/>
      <path id="DejaVuSans-62" d="M 3116 1747 
Q 3116 2381 2855 2742 
Q 2594 3103 2138 3103 
Q 1681 3103 1420 2742 
Q 1159 2381 1159 1747 
Q 1159 1113 1420 752 
Q 1681 391 2138 391 
Q 2594 391 2855 752 
Q 3116 1113 3116 1747 
z
M 1159 2969 
Q 1341 3281 1617 3432 
Q 1894 3584 2278 3584 
Q 2916 3584 3314 3078 
Q 3713 2572 3713 1747 
Q 3713 922 3314 415 
Q 2916 -91 2278 -91 
Q 1894 -91 1617 61 
Q 1341 213 1159 525 
L 1159 0 
L 581 0 
L 581 4863 
L 1159 4863 
L 1159 2969 
z
" transform="scale(0.015625)"/>
      <path id="DejaVuSans-67" d="M 2906 1791 
Q 2906 2416 2648 2759 
Q 2391 3103 1925 3103 
Q 1463 3103 1205 2759 
Q 947 2416 947 1791 
Q 947 1169 1205 825 
Q 1463 481 1925 481 
Q 2391 481 2648 825 
Q 2906 1169 2906 1791 
z
M 3481 434 
Q 3481 -459 3084 -895 
Q 2688 -1331 1869 -1331 
Q 1566 -1331 1297 -1286 
Q 1028 -1241 775 -1147 
L 775 -588 
Q 1028 -725 1275 -790 
Q 1522 -856 1778 -856 
Q 2344 -856 2625 -561 
Q 2906 -266 2906 331 
L 2906 616 
Q 2728 306 2450 153 
Q 2172 0 1784 0 
Q 1141 0 747 490 
Q 353 981 353 1791 
Q 353 2603 747 3093 
Q 1141 3584 1784 3584 
Q 2172 3584 2450 3431 
Q 2728 3278 2906 2969 
L 2906 3500 
L 3481 3500 
L 3481 434 
z
" transform="scale(0.015625)"/>
      <path id="DejaVuSans-72" d="M 2631 2963 
Q 2534 3019 2420 3045 
Q 2306 3072 2169 3072 
Q 1681 3072 1420 2755 
Q 1159 2438 1159 1844 
L 1159 0 
L 581 0 
L 581 3500 
L 1159 3500 
L 1159 2956 
Q 1341 3275 1631 3429 
Q 1922 3584 2338 3584 
Q 2397 3584 2469 3576 
Q 2541 3569 2628 3553 
L 2631 2963 
z
" transform="scale(0.015625)"/>
      <path id="DejaVuSans-6f" d="M 1959 3097 
Q 1497 3097 1228 2736 
Q 959 2375 959 1747 
Q 959 1119 1226 758 
Q 1494 397 1959 397 
Q 2419 397 2687 759 
Q 2956 1122 2956 1747 
Q 2956 2369 2687 2733 
Q 2419 3097 1959 3097 
z
M 1959 3584 
Q 2709 3584 3137 3096 
Q 3566 2609 3566 1747 
Q 3566 888 3137 398 
Q 2709 -91 1959 -91 
Q 1206 -91 779 398 
Q 353 888 353 1747 
Q 353 2609 779 3096 
Q 1206 3584 1959 3584 
z
" transform="scale(0.015625)"/>
      <path id="DejaVuSans-28" d="M 1984 4856 
Q 1566 4138 1362 3434 
Q 1159 2731 1159 2009 
Q 1159 1288 1364 580 
Q 1569 -128 1984 -844 
L 1484 -844 
Q 1016 -109 783 600 
Q 550 1309 550 2009 
Q 550 2706 781 3412 
Q 1013 4119 1484 4856 
L 1984 4856 
z
" transform="scale(0.015625)"/>
      <path id="DejaVuSans-3c3" d="M 1959 3044 
Q 1484 3044 1228 2700 
Q 959 2341 959 1747 
Q 959 1119 1226 758 
Q 1494 397 1959 397 
Q 2419 397 2687 759 
Q 2956 1122 2956 1747 
Q 2956 2319 2688 2700 
Q 2441 3044 1959 3044 
z
M 1959 3500 
L 3869 3500 
L 3869 2925 
L 3225 2925 
Q 3566 2438 3566 1747 
Q 3566 888 3138 400 
Q 2709 -91 1959 -91 
Q 1206 -91 781 400 
Q 353 888 353 1747 
Q 353 2613 781 3097 
Q 1134 3500 1959 3500 
z
" transform="scale(0.015625)"/>
      <path id="DejaVuSans-6e" d="M 3513 2113 
L 3513 0 
L 2938 0 
L 2938 2094 
Q 2938 2591 2744 2837 
Q 2550 3084 2163 3084 
Q 1697 3084 1428 2787 
Q 1159 2491 1159 1978 
L 1159 0 
L 581 0 
L 581 3500 
L 1159 3500 
L 1159 2956 
Q 1366 3272 1645 3428 
Q 1925 3584 2291 3584 
Q 2894 3584 3203 3211 
Q 3513 2838 3513 2113 
z
" transform="scale(0.015625)"/>
      <path id="DejaVuSans-63" d="M 3122 3366 
L 3122 2828 
Q 2878 2963 2633 3030 
Q 2388 3097 2138 3097 
Q 1578 3097 1268 2742 
Q 959 2388 959 1747 
Q 959 1106 1268 751 
Q 1578 397 2138 397 
Q 2388 397 2633 464 
Q 2878 531 3122 666 
L 3122 134 
Q 2881 22 2623 -34 
Q 2366 -91 2075 -91 
Q 1284 -91 818 406 
Q 353 903 353 1747 
Q 353 2603 823 3093 
Q 1294 3584 2113 3584 
Q 2378 3584 2631 3529 
Q 2884 3475 3122 3366 
z
" transform="scale(0.015625)"/>
      <path id="DejaVuSans-6c" d="M 603 4863 
L 1178 4863 
L 1178 0 
L 603 0 
L 603 4863 
z
" transform="scale(0.015625)"/>
      <path id="DejaVuSans-29" d="M 513 4856 
L 1013 4856 
Q 1481 4119 1714 3412 
Q 1947 2706 1947 2009 
Q 1947 1309 1714 600 
Q 1481 -109 1013 -844 
L 513 -844 
Q 928 -128 1133 580 
Q 1338 1288 1338 2009 
Q 1338 2731 1133 3434 
Q 928 4138 513 4856 
z
" transform="scale(0.015625)"/>
     </defs>
     <use xlink:href="#DejaVuSans-53"/>
     <use xlink:href="#DejaVuSans-74" transform="translate(63.476562 0)"/>
     <use xlink:href="#DejaVuSans-65" transform="translate(102.685547 0)"/>
     <use xlink:href="#DejaVuSans-70" transform="translate(164.208984 0)"/>
     <use xlink:href="#DejaVuSans-20" transform="translate(227.685547 0)"/>
     <use xlink:href="#DejaVuSans-73" transform="translate(259.472656 0)"/>
     <use xlink:href="#DejaVuSans-68" transform="translate(311.572266 0)"/>
     <use xlink:href="#DejaVuSans-69" transform="translate(374.951172 0)"/>
     <use xlink:href="#DejaVuSans-66" transform="translate(402.734375 0)"/>
     <use xlink:href="#DejaVuSans-74" transform="translate(436.189453 0)"/>
     <use xlink:href="#DejaVuSans-20" transform="translate(475.398438 0)"/>
     <use xlink:href="#DejaVuSans-61" transform="translate(507.185547 0)"/>
     <use xlink:href="#DejaVuSans-74" transform="translate(568.464844 0)"/>
     <use xlink:href="#DejaVuSans-20" transform="translate(607.673828 0)"/>
     <use xlink:href="#DejaVuSans-73" transform="translate(639.460938 0)"/>
     <use xlink:href="#DejaVuSans-75" transform="translate(691.560547 0)"/>
     <use xlink:href="#DejaVuSans-62" transform="translate(754.939453 0)"/>
     <use xlink:href="#DejaVuSans-67" transform="translate(818.416016 0)"/>
     <use xlink:href="#DejaVuSans-72" transform="translate(881.892578 0)"/>
     <use xlink:href="#DejaVuSans-6f" transform="translate(920.755859 0)"/>
     <use xlink:href="#DejaVuSans-75" transform="translate(981.9375 0)"/>
     <use xlink:href="#DejaVuSans-70" transform="translate(1045.316406 0)"/>
     <use xlink:href="#DejaVuSans-20" transform="translate(1108.792969 0)"/>
     <use xlink:href="#DejaVuSans-32" transform="translate(1140.580078 0)"/>
     <use xlink:href="#DejaVuSans-30" transform="translate(1204.203125 0)"/>
     <use xlink:href="#DejaVuSans-20" transform="translate(1267.826172 0)"/>
     <use xlink:href="#DejaVuSans-28" transform="translate(1299.613281 0)"/>
     <use xlink:href="#DejaVuSans-32" transform="translate(1338.626953 0)"/>
     <use xlink:href="#DejaVuSans-2e" transform="translate(1402.25 0)"/>
     <use xlink:href="#DejaVuSans-30" transform="translate(1434.037109 0)"/>
     <use xlink:href="#DejaVuSans-3c3" transform="translate(1497.660156 0)"/>
     <use xlink:href="#DejaVuSans-20" transform="translate(1561.039062 0)"/>
     <use xlink:href="#DejaVuSans-6f" transform="translate(1592.826172 0)"/>
     <use xlink:href="#DejaVuSans-6e" transform="translate(1654.007812 0)"/>
     <use xlink:href="#DejaVuSans-20" transform="translate(1717.386719 0)"/>
     <use xlink:href="#DejaVuSans-58" transform="translate(1749.173828 0)"/>
     <use xlink:href="#DejaVuSans-304" transform="translate(1817.679688 0)"/>
     <use xlink:href="#DejaVuSans-20" transform="translate(1817.679688 0)"/>
     <use xlink:href="#DejaVuSans-73" transform="translate(1849.466797 0)"/>
     <use xlink:href="#DejaVuSans-63" transform="translate(1901.566406 0)"/>
     <use xlink:href="#DejaVuSans-61" transform="translate(1956.546875 0)"/>
     <use xlink:href="#DejaVuSans-6c" transform="translate(2017.826172 0)"/>
     <use xlink:href="#DejaVuSans-65" transform="translate(2045.609375 0)"/>
     <use xlink:href="#DejaVuSans-29" transform="translate(2107.132812 0)"/>
    </g>
   </g>
  </g>
  <g id="axes_2">
   <g id="patch_5">
    <path d="M 53.48 266.2 
L 536.4 266.2 
L 536.4 152.25 
L 53.48 152.25 
z
" style="fill: #fafafa"/>
   </g>
   <g id="matplotlib.axis_3">
    <g id="xtick_10">
     <g id="line2d_31">
      <path d="M 75.430909 266.2 
L 75.430909 152.25 
" clip-path="url(#p4a194db3b9)" style="fill: none; stroke: #e2e2e2; stroke-opacity: 0.6; stroke-width: 0.6; stroke-linecap: square"/>
     </g>
     <g id="line2d_32">
      <g>
       <use xlink:href="#m0a16df1dd6" x="75.430909" y="266.2" style="fill: #877e72; stroke: #877e72; stroke-width: 0.8"/>
      </g>
     </g>
     <g id="text_7">
      <!-- 0 -->
      <g style="fill: #877e72" transform="translate(72.885909 279.27875) scale(0.08 -0.08)">
       <use xlink:href="#DejaVuSans-30"/>
      </g>
     </g>
    </g>
    <g id="xtick_11">
     <g id="line2d_33">
      <path d="M 131.715291 266.2 
L 131.715291 152.25 
" clip-path="url(#p4a194db3b9)" style="fill: none; stroke: #e2e2e2; stroke-opacity: 0.6; stroke-width: 0.6; stroke-linecap: square"/>
     </g>
     <g id="line2d_34">
      <g>
       <use xlink:href="#m0a16df1dd6" x="131.715291" y="266.2" style="fill: #877e72; stroke: #877e72; stroke-width: 0.8"/>
      </g>
     </g>
     <g id="text_8">
      <!-- 5 -->
      <g style="fill: #877e72" transform="translate(129.170291 279.27875) scale(0.08 -0.08)">
       <defs>
        <path id="DejaVuSans-35" d="M 691 4666 
L 3169 4666 
L 3169 4134 
L 1269 4134 
L 1269 2991 
Q 1406 3038 1543 3061 
Q 1681 3084 1819 3084 
Q 2600 3084 3056 2656 
Q 3513 2228 3513 1497 
Q 3513 744 3044 326 
Q 2575 -91 1722 -91 
Q 1428 -91 1123 -41 
Q 819 9 494 109 
L 494 744 
Q 775 591 1075 516 
Q 1375 441 1709 441 
Q 2250 441 2565 725 
Q 2881 1009 2881 1497 
Q 2881 1984 2565 2268 
Q 2250 2553 1709 2553 
Q 1456 2553 1204 2497 
Q 953 2441 691 2322 
L 691 4666 
z
" transform="scale(0.015625)"/>
       </defs>
       <use xlink:href="#DejaVuSans-35"/>
      </g>
     </g>
    </g>
    <g id="xtick_12">
     <g id="line2d_35">
      <path d="M 187.999674 266.2 
L 187.999674 152.25 
" clip-path="url(#p4a194db3b9)" style="fill: none; stroke: #e2e2e2; stroke-opacity: 0.6; stroke-width: 0.6; stroke-linecap: square"/>
     </g>
     <g id="line2d_36">
      <g>
       <use xlink:href="#m0a16df1dd6" x="187.999674" y="266.2" style="fill: #877e72; stroke: #877e72; stroke-width: 0.8"/>
      </g>
     </g>
     <g id="text_9">
      <!-- 10 -->
      <g style="fill: #877e72" transform="translate(182.909674 279.27875) scale(0.08 -0.08)">
       <use xlink:href="#DejaVuSans-31"/>
       <use xlink:href="#DejaVuSans-30" transform="translate(63.623047 0)"/>
      </g>
     </g>
    </g>
    <g id="xtick_13">
     <g id="line2d_37">
      <path d="M 244.284056 266.2 
L 244.284056 152.25 
" clip-path="url(#p4a194db3b9)" style="fill: none; stroke: #e2e2e2; stroke-opacity: 0.6; stroke-width: 0.6; stroke-linecap: square"/>
     </g>
     <g id="line2d_38">
      <g>
       <use xlink:href="#m0a16df1dd6" x="244.284056" y="266.2" style="fill: #877e72; stroke: #877e72; stroke-width: 0.8"/>
      </g>
     </g>
     <g id="text_10">
      <!-- 15 -->
      <g style="fill: #877e72" transform="translate(239.194056 279.27875) scale(0.08 -0.08)">
       <use xlink:href="#DejaVuSans-31"/>
       <use xlink:href="#DejaVuSans-35" transform="translate(63.623047 0)"/>
      </g>
     </g>
    </g>
    <g id="xtick_14">
     <g id="line2d_39">
      <path d="M 300.568438 266.2 
L 300.568438 152.25 
" clip-path="url(#p4a194db3b9)" style="fill: none; stroke: #e2e2e2; stroke-opacity: 0.6; stroke-width: 0.6; stroke-linecap: square"/>
     </g>
     <g id="line2d_40">
      <g>
       <use xlink:href="#m0a16df1dd6" x="300.568438" y="266.2" style="fill: #877e72; stroke: #877e72; stroke-width: 0.8"/>
      </g>
     </g>
     <g id="text_11">
      <!-- 20 -->
      <g style="fill: #877e72" transform="translate(295.478438 279.27875) scale(0.08 -0.08)">
       <use xlink:href="#DejaVuSans-32"/>
       <use xlink:href="#DejaVuSans-30" transform="translate(63.623047 0)"/>
      </g>
     </g>
    </g>
    <g id="xtick_15">
     <g id="line2d_41">
      <path d="M 356.852821 266.2 
L 356.852821 152.25 
" clip-path="url(#p4a194db3b9)" style="fill: none; stroke: #e2e2e2; stroke-opacity: 0.6; stroke-width: 0.6; stroke-linecap: square"/>
     </g>
     <g id="line2d_42">
      <g>
       <use xlink:href="#m0a16df1dd6" x="356.852821" y="266.2" style="fill: #877e72; stroke: #877e72; stroke-width: 0.8"/>
      </g>
     </g>
     <g id="text_12">
      <!-- 25 -->
      <g style="fill: #877e72" transform="translate(351.762821 279.27875) scale(0.08 -0.08)">
       <use xlink:href="#DejaVuSans-32"/>
       <use xlink:href="#DejaVuSans-35" transform="translate(63.623047 0)"/>
      </g>
     </g>
    </g>
    <g id="xtick_16">
     <g id="line2d_43">
      <path d="M 413.137203 266.2 
L 413.137203 152.25 
" clip-path="url(#p4a194db3b9)" style="fill: none; stroke: #e2e2e2; stroke-opacity: 0.6; stroke-width: 0.6; stroke-linecap: square"/>
     </g>
     <g id="line2d_44">
      <g>
       <use xlink:href="#m0a16df1dd6" x="413.137203" y="266.2" style="fill: #877e72; stroke: #877e72; stroke-width: 0.8"/>
      </g>
     </g>
     <g id="text_13">
      <!-- 30 -->
      <g style="fill: #877e72" transform="translate(408.047203 279.27875) scale(0.08 -0.08)">
       <defs>
        <path id="DejaVuSans-33" d="M 2597 2516 
Q 3050 2419 3304 2112 
Q 3559 1806 3559 1356 
Q 3559 666 3084 287 
Q 2609 -91 1734 -91 
Q 1441 -91 1130 -33 
Q 819 25 488 141 
L 488 750 
Q 750 597 1062 519 
Q 1375 441 1716 441 
Q 2309 441 2620 675 
Q 2931 909 2931 1356 
Q 2931 1769 2642 2001 
Q 2353 2234 1838 2234 
L 1294 2234 
L 1294 2753 
L 1863 2753 
Q 2328 2753 2575 2939 
Q 2822 3125 2822 3475 
Q 2822 3834 2567 4026 
Q 2313 4219 1838 4219 
Q 1578 4219 1281 4162 
Q 984 4106 628 3988 
L 628 4550 
Q 988 4650 1302 4700 
Q 1616 4750 1894 4750 
Q 2613 4750 3031 4423 
Q 3450 4097 3450 3541 
Q 3450 3153 3228 2886 
Q 3006 2619 2597 2516 
z
" transform="scale(0.015625)"/>
       </defs>
       <use xlink:href="#DejaVuSans-33"/>
       <use xlink:href="#DejaVuSans-30" transform="translate(63.623047 0)"/>
      </g>
     </g>
    </g>
    <g id="xtick_17">
     <g id="line2d_45">
      <path d="M 469.421585 266.2 
L 469.421585 152.25 
" clip-path="url(#p4a194db3b9)" style="fill: none; stroke: #e2e2e2; stroke-opacity: 0.6; stroke-width: 0.6; stroke-linecap: square"/>
     </g>
     <g id="line2d_46">
      <g>
       <use xlink:href="#m0a16df1dd6" x="469.421585" y="266.2" style="fill: #877e72; stroke: #877e72; stroke-width: 0.8"/>
      </g>
     </g>
     <g id="text_14">
      <!-- 35 -->
      <g style="fill: #877e72" transform="translate(464.331585 279.27875) scale(0.08 -0.08)">
       <use xlink:href="#DejaVuSans-33"/>
       <use xlink:href="#DejaVuSans-35" transform="translate(63.623047 0)"/>
      </g>
     </g>
    </g>
    <g id="xtick_18">
     <g id="line2d_47">
      <path d="M 525.705967 266.2 
L 525.705967 152.25 
" clip-path="url(#p4a194db3b9)" style="fill: none; stroke: #e2e2e2; stroke-opacity: 0.6; stroke-width: 0.6; stroke-linecap: square"/>
     </g>
     <g id="line2d_48">
      <g>
       <use xlink:href="#m0a16df1dd6" x="525.705967" y="266.2" style="fill: #877e72; stroke: #877e72; stroke-width: 0.8"/>
      </g>
     </g>
     <g id="text_15">
      <!-- 40 -->
      <g style="fill: #877e72" transform="translate(520.615967 279.27875) scale(0.08 -0.08)">
       <defs>
        <path id="DejaVuSans-34" d="M 2419 4116 
L 825 1625 
L 2419 1625 
L 2419 4116 
z
M 2253 4666 
L 3047 4666 
L 3047 1625 
L 3713 1625 
L 3713 1100 
L 3047 1100 
L 3047 0 
L 2419 0 
L 2419 1100 
L 313 1100 
L 313 1709 
L 2253 4666 
z
" transform="scale(0.015625)"/>
       </defs>
       <use xlink:href="#DejaVuSans-34"/>
       <use xlink:href="#DejaVuSans-30" transform="translate(63.623047 0)"/>
      </g>
     </g>
    </g>
    <g id="text_16">
     <!-- subgroup index -->
     <g style="fill: #877e72" transform="translate(263.950625 291.02125) scale(0.08 -0.08)">
      <defs>
       <path id="DejaVuSans-64" d="M 2906 2969 
L 2906 4863 
L 3481 4863 
L 3481 0 
L 2906 0 
L 2906 525 
Q 2725 213 2448 61 
Q 2172 -91 1784 -91 
Q 1150 -91 751 415 
Q 353 922 353 1747 
Q 353 2572 751 3078 
Q 1150 3584 1784 3584 
Q 2172 3584 2448 3432 
Q 2725 3281 2906 2969 
z
M 947 1747 
Q 947 1113 1208 752 
Q 1469 391 1925 391 
Q 2381 391 2643 752 
Q 2906 1113 2906 1747 
Q 2906 2381 2643 2742 
Q 2381 3103 1925 3103 
Q 1469 3103 1208 2742 
Q 947 2381 947 1747 
z
" transform="scale(0.015625)"/>
       <path id="DejaVuSans-78" d="M 3513 3500 
L 2247 1797 
L 3578 0 
L 2900 0 
L 1881 1375 
L 863 0 
L 184 0 
L 1544 1831 
L 300 3500 
L 978 3500 
L 1906 2253 
L 2834 3500 
L 3513 3500 
z
" transform="scale(0.015625)"/>
      </defs>
      <use xlink:href="#DejaVuSans-73"/>
      <use xlink:href="#DejaVuSans-75" transform="translate(52.099609 0)"/>
      <use xlink:href="#DejaVuSans-62" transform="translate(115.478516 0)"/>
      <use xlink:href="#DejaVuSans-67" transform="translate(178.955078 0)"/>
      <use xlink:href="#DejaVuSans-72" transform="translate(242.431641 0)"/>
      <use xlink:href="#DejaVuSans-6f" transform="translate(281.294922 0)"/>
      <use xlink:href="#DejaVuSans-75" transform="translate(342.476562 0)"/>
      <use xlink:href="#DejaVuSans-70" transform="translate(405.855469 0)"/>
      <use xlink:href="#DejaVuSans-20" transform="translate(469.332031 0)"/>
      <use xlink:href="#DejaVuSans-69" transform="translate(501.119141 0)"/>
      <use xlink:href="#DejaVuSans-6e" transform="translate(528.902344 0)"/>
      <use xlink:href="#DejaVuSans-64" transform="translate(592.28125 0)"/>
      <use xlink:href="#DejaVuSans-65" transform="translate(655.757812 0)"/>
      <use xlink:href="#DejaVuSans-78" transform="translate(715.53125 0)"/>
     </g>
    </g>
   </g>
   <g id="matplotlib.axis_4">
    <g id="ytick_5">
     <g id="line2d_49">
      <path d="M 53.48 264.949583 
L 536.4 264.949583 
" clip-path="url(#p4a194db3b9)" style="fill: none; stroke: #e2e2e2; stroke-opacity: 0.6; stroke-width: 0.6; stroke-linecap: square"/>
     </g>
     <g id="line2d_50">
      <g>
       <use xlink:href="#m0c0fbe446a" x="53.48" y="264.949583" style="fill: #877e72; stroke: #877e72; stroke-width: 0.8"/>
      </g>
     </g>
     <g id="text_17">
      <!-- −0.05 -->
      <g style="fill: #877e72" transform="translate(21.96375 267.988958) scale(0.08 -0.08)">
       <use xlink:href="#DejaVuSans-2212"/>
       <use xlink:href="#DejaVuSans-30" transform="translate(83.789062 0)"/>
       <use xlink:href="#DejaVuSans-2e" transform="translate(147.412109 0)"/>
       <use xlink:href="#DejaVuSans-30" transform="translate(179.199219 0)"/>
       <use xlink:href="#DejaVuSans-35" transform="translate(242.822266 0)"/>
      </g>
     </g>
    </g>
    <g id="ytick_6">
     <g id="line2d_51">
      <path d="M 53.48 240.603894 
L 536.4 240.603894 
" clip-path="url(#p4a194db3b9)" style="fill: none; stroke: #e2e2e2; stroke-opacity: 0.6; stroke-width: 0.6; stroke-linecap: square"/>
     </g>
     <g id="line2d_52">
      <g>
       <use xlink:href="#m0c0fbe446a" x="53.48" y="240.603894" style="fill: #877e72; stroke: #877e72; stroke-width: 0.8"/>
      </g>
     </g>
     <g id="text_18">
      <!-- 0.00 -->
      <g style="fill: #877e72" transform="translate(28.6675 243.643269) scale(0.08 -0.08)">
       <use xlink:href="#DejaVuSans-30"/>
       <use xlink:href="#DejaVuSans-2e" transform="translate(63.623047 0)"/>
       <use xlink:href="#DejaVuSans-30" transform="translate(95.410156 0)"/>
       <use xlink:href="#DejaVuSans-30" transform="translate(159.033203 0)"/>
      </g>
     </g>
    </g>
    <g id="ytick_7">
     <g id="line2d_53">
      <path d="M 53.48 216.258204 
L 536.4 216.258204 
" clip-path="url(#p4a194db3b9)" style="fill: none; stroke: #e2e2e2; stroke-opacity: 0.6; stroke-width: 0.6; stroke-linecap: square"/>
     </g>
     <g id="line2d_54">
      <g>
       <use xlink:href="#m0c0fbe446a" x="53.48" y="216.258204" style="fill: #877e72; stroke: #877e72; stroke-width: 0.8"/>
      </g>
     </g>
     <g id="text_19">
      <!-- 0.05 -->
      <g style="fill: #877e72" transform="translate(28.6675 219.297579) scale(0.08 -0.08)">
       <use xlink:href="#DejaVuSans-30"/>
       <use xlink:href="#DejaVuSans-2e" transform="translate(63.623047 0)"/>
       <use xlink:href="#DejaVuSans-30" transform="translate(95.410156 0)"/>
       <use xlink:href="#DejaVuSans-35" transform="translate(159.033203 0)"/>
      </g>
     </g>
    </g>
    <g id="ytick_8">
     <g id="line2d_55">
      <path d="M 53.48 191.912515 
L 536.4 191.912515 
" clip-path="url(#p4a194db3b9)" style="fill: none; stroke: #e2e2e2; stroke-opacity: 0.6; stroke-width: 0.6; stroke-linecap: square"/>
     </g>
     <g id="line2d_56">
      <g>
       <use xlink:href="#m0c0fbe446a" x="53.48" y="191.912515" style="fill: #877e72; stroke: #877e72; stroke-width: 0.8"/>
      </g>
     </g>
     <g id="text_20">
      <!-- 0.10 -->
      <g style="fill: #877e72" transform="translate(28.6675 194.95189) scale(0.08 -0.08)">
       <use xlink:href="#DejaVuSans-30"/>
       <use xlink:href="#DejaVuSans-2e" transform="translate(63.623047 0)"/>
       <use xlink:href="#DejaVuSans-31" transform="translate(95.410156 0)"/>
       <use xlink:href="#DejaVuSans-30" transform="translate(159.033203 0)"/>
      </g>
     </g>
    </g>
    <g id="ytick_9">
     <g id="line2d_57">
      <path d="M 53.48 167.566825 
L 536.4 167.566825 
" clip-path="url(#p4a194db3b9)" style="fill: none; stroke: #e2e2e2; stroke-opacity: 0.6; stroke-width: 0.6; stroke-linecap: square"/>
     </g>
     <g id="line2d_58">
      <g>
       <use xlink:href="#m0c0fbe446a" x="53.48" y="167.566825" style="fill: #877e72; stroke: #877e72; stroke-width: 0.8"/>
      </g>
     </g>
     <g id="text_21">
      <!-- 0.15 -->
      <g style="fill: #877e72" transform="translate(28.6675 170.6062) scale(0.08 -0.08)">
       <use xlink:href="#DejaVuSans-30"/>
       <use xlink:href="#DejaVuSans-2e" transform="translate(63.623047 0)"/>
       <use xlink:href="#DejaVuSans-31" transform="translate(95.410156 0)"/>
       <use xlink:href="#DejaVuSans-35" transform="translate(159.033203 0)"/>
      </g>
     </g>
    </g>
    <g id="text_22">
     <!-- EWMA -->
     <g transform="translate(16.3 221.895) rotate(-90) scale(0.08 -0.08)">
      <defs>
       <path id="DejaVuSans-45" d="M 628 4666 
L 3578 4666 
L 3578 4134 
L 1259 4134 
L 1259 2753 
L 3481 2753 
L 3481 2222 
L 1259 2222 
L 1259 531 
L 3634 531 
L 3634 0 
L 628 0 
L 628 4666 
z
" transform="scale(0.015625)"/>
       <path id="DejaVuSans-57" d="M 213 4666 
L 850 4666 
L 1831 722 
L 2809 4666 
L 3519 4666 
L 4500 722 
L 5478 4666 
L 6119 4666 
L 4947 0 
L 4153 0 
L 3169 4050 
L 2175 0 
L 1381 0 
L 213 4666 
z
" transform="scale(0.015625)"/>
       <path id="DejaVuSans-4d" d="M 628 4666 
L 1569 4666 
L 2759 1491 
L 3956 4666 
L 4897 4666 
L 4897 0 
L 4281 0 
L 4281 4097 
L 3078 897 
L 2444 897 
L 1241 4097 
L 1241 0 
L 628 0 
L 628 4666 
z
" transform="scale(0.015625)"/>
       <path id="DejaVuSans-41" d="M 2188 4044 
L 1331 1722 
L 3047 1722 
L 2188 4044 
z
M 1831 4666 
L 2547 4666 
L 4325 0 
L 3669 0 
L 3244 1197 
L 1141 1197 
L 716 0 
L 50 0 
L 1831 4666 
z
" transform="scale(0.015625)"/>
      </defs>
      <use xlink:href="#DejaVuSans-45"/>
      <use xlink:href="#DejaVuSans-57" transform="translate(63.183594 0)"/>
      <use xlink:href="#DejaVuSans-4d" transform="translate(162.060547 0)"/>
      <use xlink:href="#DejaVuSans-41" transform="translate(248.339844 0)"/>
     </g>
    </g>
   </g>
   <g id="line2d_59">
    <path d="M 75.430909 238.055606 
L 86.687786 241.186624 
L 97.944662 233.520143 
L 109.201538 233.445358 
L 120.458415 238.681413 
L 131.715291 233.434099 
L 142.972168 232.777044 
L 154.229044 244.359744 
L 165.485921 241.706257 
L 176.742797 240.642829 
L 187.999674 233.001628 
L 199.25655 243.229634 
L 210.513427 247.977065 
L 221.770303 256.239518 
L 233.027179 251.936823 
L 244.284056 261.020455 
L 255.540932 257.639268 
L 266.797809 244.816311 
L 278.054685 247.294073 
L 289.311562 239.129959 
L 300.568438 221.941284 
L 311.825315 210.211744 
L 323.082191 199.815119 
L 334.339068 199.220989 
L 345.595944 206.722757 
L 356.852821 187.227885 
L 368.109697 186.078934 
L 379.366573 184.874052 
L 390.62345 182.628116 
L 401.880326 171.402522 
L 413.137203 162.455896 
L 424.394079 166.828877 
L 435.650956 157.867775 
L 446.907832 157.429545 
L 458.164709 158.441175 
L 469.421585 171.500459 
L 480.678462 172.150021 
L 491.935338 166.990713 
L 503.192214 164.420382 
L 514.449091 166.180725 
" clip-path="url(#p4a194db3b9)" style="fill: none; stroke: #3d3327; stroke-width: 1.4; stroke-linecap: square"/>
   </g>
   <g id="line2d_60">
    <path d="M 300.568438 266.2 
L 300.568438 152.25 
" clip-path="url(#p4a194db3b9)" style="fill: none; stroke-dasharray: 1,1.65; stroke-dashoffset: 0; stroke: #877e72"/>
   </g>
   <g id="patch_6">
    <path d="M 53.48 266.2 
L 53.48 152.25 
" style="fill: none; stroke: #e2e2e2; stroke-width: 0.8; stroke-linejoin: miter; stroke-linecap: square"/>
   </g>
   <g id="patch_7">
    <path d="M 53.48 266.2 
L 536.4 266.2 
" style="fill: none; stroke: #e2e2e2; stroke-width: 0.8; stroke-linejoin: miter; stroke-linecap: square"/>
   </g>
   <g id="legend_1">
    <g id="line2d_61">
     <path d="M 60.68 162.72875 
L 68.68 162.72875 
L 76.68 162.72875 
" style="fill: none; stroke: #3d3327; stroke-width: 1.4; stroke-linecap: square"/>
    </g>
    <g id="text_23">
     <!-- EWMA -->
     <g transform="translate(83.08 165.52875) scale(0.08 -0.08)">
      <use xlink:href="#DejaVuSans-45"/>
      <use xlink:href="#DejaVuSans-57" transform="translate(63.183594 0)"/>
      <use xlink:href="#DejaVuSans-4d" transform="translate(162.060547 0)"/>
      <use xlink:href="#DejaVuSans-41" transform="translate(248.339844 0)"/>
     </g>
    </g>
   </g>
  </g>
 </g>
 <defs>
  <clipPath id="p4dcd45eaa9">
   <rect x="53.48" y="24" width="482.92" height="113.95"/>
  </clipPath>
  <clipPath id="p4a194db3b9">
   <rect x="53.48" y="152.25" width="482.92" height="113.95"/>
  </clipPath>
 </defs>
</svg>
