<?xml version="1.0" encoding="utf-8" standalone="no"?>
<!DOCTYPE svg PUBLIC "-//W3C//DTD SVG 1.1//EN"
  "http://www.w3.org/Graphics/SVG/1.1/DTD/svg11.dtd">
<svg xmlns:xlink="http://www.w3.org/1999/xlink" width="576pt" height="273.6pt" viewBox="0 0 576 273.6" xmlns="http://www.w3.org/2000/svg" version="1.1">
 <metadata>
  <rdf:RDF xmlns:dc="http://purl.org/dc/elements/1.1/" xmlns:cc="http://creativecommons.org/ns#" xmlns:rdf="http://www.w3.org/1999/02/22-rdf-syntax-ns#">
   <cc:Work>
    <dc:type rdf:resource="http://purl.org/dc/dcmitype/StillImage"/>
    <dc:date>2026-07-16T12:33:01.172354</dc:date>
    <dc:format>image/svg+xml</dc:format>
    <dc:creator>
     <cc:Agent>
      <dc:title>Matplotlib v3.11.0, https://matplotlib.org/</dc:title>
     </cc:Agent>
    </dc:creator>
   </cc:Work>
  </rdf:RDF>
 </metadata>
 <defs>
  <style type="text/css">*{stroke-linejoin: round; stroke-linecap: butt}</style>
 </defs>
 <g id="figure_1">
  <g id="patch_1">
   <path d="M 0 273.6 
L 576 273.6 
L 576 0 
L 0 0 
z
" style="fill: #ffffff"/>
  </g>
  <g id="axes_1">
   <g id="patch_2">
    <path d="M 50.936364 232.3 
L 565.2 232.3 
L 565.2 27.309091 
L 50.936364 27.309091 
z
" style="fill: #ffffff"/>
   </g>
   <g id="patch_3">
    <path d="M 211.81563 232.3 
L 459.322193 232.3 
L 459.322193 27.309091 
L 211.81563 27.309091 
z
" clip-path="url(#p842a906667)" style="fill: #c0392b; opacity: 0.06; stroke: #c0392b; stroke-linejoin: miter"/>
   </g>
   <g id="matplotlib.axis_1">
    <g id="xtick_1">
     <g id="line2d_1">
      <defs>
       <path id="ma7bfe7cb4b" d="M 0 0 
L 0 3.5 
" style="stroke: #58595a; stroke-width: 0.8"/>
      </defs>
      <g>
       <use xlink:href="#ma7bfe7cb4b" x="60.561619" y="232.3" style="fill: #58595a; stroke: #58595a; stroke-width: 0.8"/>
      </g>
     </g>
     <g id="text_1">
      <!-- 0.05 -->
      <g style="fill: #58595a" transform="translate(49.428806 246.897656) scale(0.1 -0.1)">
       <defs>
        <path id="DejaVuSans-13" d="M 2034 4250 
Q 1547 4250 1301 3770 
Q 1056 3291 1056 2328 
Q 1056 1369 1301 889 
Q 1547 409 2034 409 
Q 2525 409 2770 889 
Q 3016 1369 3016 2328 
Q 3016 3291 2770 3770 
Q 2525 4250 2034 4250 
z
M 2034 4750 
Q 2819 4750 3233 4129 
Q 3647 3509 3647 2328 
Q 3647 1150 3233 529 
Q 2819 -91 2034 -91 
Q 1250 -91 836 529 
Q 422 1150 422 2328 
Q 422 3509 836 4129 
Q 1250 4750 2034 4750 
z
" transform="scale(0.015625)"/>
        <path id="DejaVuSans-11" d="M 684 794 
L 1344 794 
L 1344 0 
L 684 0 
L 684 794 
z
" transform="scale(0.015625)"/>
        <path id="DejaVuSans-18" d="M 691 4666 
L 3169 4666 
L 3169 4134 
L 1269 4134 
L 1269 2991 
Q 1406 3038 1543 3061 
Q 1681 3084 1819 3084 
Q 2600 3084 3056 2656 
Q 3513 2228 3513 1497 
Q 3513 744 3044 326 
Q 2575 -91 1722 -91 
Q 1428 -91 1123 -41 
Q 819 9 494 109 
L 494 744 
Q 775 591 1075 516 
Q 1375 441 1709 441 
Q 2250 441 2565 725 
Q 2881 1009 2881 1497 
Q 2881 1984 2565 2268 
Q 2250 2553 1709 2553 
Q 1456 2553 1204 2497 
Q 953 2441 691 2322 
L 691 4666 
z
" transform="scale(0.015625)"/>
       </defs>
       <use xlink:href="#DejaVuSans-13"/>
       <use xlink:href="#DejaVuSans-11" transform="translate(63.625 0)"/>
       <use xlink:href="#DejaVuSans-13" transform="translate(95.40625 0)"/>
       <use xlink:href="#DejaVuSans-18" transform="translate(159.03125 0)"/>
      </g>
     </g>
    </g>
    <g id="xtick_2">
     <g id="line2d_2">
      <g>
       <use xlink:href="#ma7bfe7cb4b" x="129.313442" y="232.3" style="fill: #58595a; stroke: #58595a; stroke-width: 0.8"/>
      </g>
     </g>
     <g id="text_2">
      <!-- 0.10 -->
      <g style="fill: #58595a" transform="translate(118.180629 246.897656) scale(0.1 -0.1)">
       <defs>
        <path id="DejaVuSans-14" d="M 794 531 
L 1825 531 
L 1825 4091 
L 703 3866 
L 703 4441 
L 1819 4666 
L 2450 4666 
L 2450 531 
L 3481 531 
L 3481 0 
L 794 0 
L 794 531 
z
" transform="scale(0.015625)"/>
       </defs>
       <use xlink:href="#DejaVuSans-13"/>
       <use xlink:href="#DejaVuSans-11" transform="translate(63.625 0)"/>
       <use xlink:href="#DejaVuSans-14" transform="translate(95.40625 0)"/>
       <use xlink:href="#DejaVuSans-13" transform="translate(159.03125 0)"/>
      </g>
     </g>
    </g>
    <g id="xtick_3">
     <g id="line2d_3">
      <g>
       <use xlink:href="#ma7bfe7cb4b" x="198.065265" y="232.3" style="fill: #58595a; stroke: #58595a; stroke-width: 0.8"/>
      </g>
     </g>
     <g id="text_3">
      <!-- 0.15 -->
      <g style="fill: #58595a" transform="translate(186.932452 246.897656) scale(0.1 -0.1)">
       <use xlink:href="#DejaVuSans-13"/>
       <use xlink:href="#DejaVuSans-11" transform="translate(63.625 0)"/>
       <use xlink:href="#DejaVuSans-14" transform="translate(95.40625 0)"/>
       <use xlink:href="#DejaVuSans-18" transform="translate(159.03125 0)"/>
      </g>
     </g>
    </g>
    <g id="xtick_4">
     <g id="line2d_4">
      <g>
       <use xlink:href="#ma7bfe7cb4b" x="266.817088" y="232.3" style="fill: #58595a; stroke: #58595a; stroke-width: 0.8"/>
      </g>
     </g>
     <g id="text_4">
      <!-- 0.20 -->
      <g style="fill: #58595a" transform="translate(255.684275 246.897656) scale(0.1 -0.1)">
       <defs>
        <path id="DejaVuSans-15" d="M 1228 531 
L 3431 531 
L 3431 0 
L 469 0 
L 469 531 
Q 828 903 1448 1529 
Q 2069 2156 2228 2338 
Q 2531 2678 2651 2914 
Q 2772 3150 2772 3378 
Q 2772 3750 2511 3984 
Q 2250 4219 1831 4219 
Q 1534 4219 1204 4116 
Q 875 4013 500 3803 
L 500 4441 
Q 881 4594 1212 4672 
Q 1544 4750 1819 4750 
Q 2544 4750 2975 4387 
Q 3406 4025 3406 3419 
Q 3406 3131 3298 2873 
Q 3191 2616 2906 2266 
Q 2828 2175 2409 1742 
Q 1991 1309 1228 531 
z
" transform="scale(0.015625)"/>
       </defs>
       <use xlink:href="#DejaVuSans-13"/>
       <use xlink:href="#DejaVuSans-11" transform="translate(63.625 0)"/>
       <use xlink:href="#DejaVuSans-15" transform="translate(95.40625 0)"/>
       <use xlink:href="#DejaVuSans-13" transform="translate(159.03125 0)"/>
      </g>
     </g>
    </g>
    <g id="xtick_5">
     <g id="line2d_5">
      <g>
       <use xlink:href="#ma7bfe7cb4b" x="335.568911" y="232.3" style="fill: #58595a; stroke: #58595a; stroke-width: 0.8"/>
      </g>
     </g>
     <g id="text_5">
      <!-- 0.25 -->
      <g style="fill: #58595a" transform="translate(324.436099 246.897656) scale(0.1 -0.1)">
       <use xlink:href="#DejaVuSans-13"/>
       <use xlink:href="#DejaVuSans-11" transform="translate(63.625 0)"/>
       <use xlink:href="#DejaVuSans-15" transform="translate(95.40625 0)"/>
       <use xlink:href="#DejaVuSans-18" transform="translate(159.03125 0)"/>
      </g>
     </g>
    </g>
    <g id="xtick_6">
     <g id="line2d_6">
      <g>
       <use xlink:href="#ma7bfe7cb4b" x="404.320734" y="232.3" style="fill: #58595a; stroke: #58595a; stroke-width: 0.8"/>
      </g>
     </g>
     <g id="text_6">
      <!-- 0.30 -->
      <g style="fill: #58595a" transform="translate(393.187922 246.897656) scale(0.1 -0.1)">
       <defs>
        <path id="DejaVuSans-16" d="M 2597 2516 
Q 3050 2419 3304 2112 
Q 3559 1806 3559 1356 
Q 3559 666 3084 287 
Q 2609 -91 1734 -91 
Q 1441 -91 1130 -33 
Q 819 25 488 141 
L 488 750 
Q 750 597 1062 519 
Q 1375 441 1716 441 
Q 2309 441 2620 675 
Q 2931 909 2931 1356 
Q 2931 1769 2642 2001 
Q 2353 2234 1838 2234 
L 1294 2234 
L 1294 2753 
L 1863 2753 
Q 2328 2753 2575 2939 
Q 2822 3125 2822 3475 
Q 2822 3834 2567 4026 
Q 2313 4219 1838 4219 
Q 1578 4219 1281 4162 
Q 984 4106 628 3988 
L 628 4550 
Q 988 4650 1302 4700 
Q 1616 4750 1894 4750 
Q 2613 4750 3031 4423 
Q 3450 4097 3450 3541 
Q 3450 3153 3228 2886 
Q 3006 2619 2597 2516 
z
" transform="scale(0.015625)"/>
       </defs>
       <use xlink:href="#DejaVuSans-13"/>
       <use xlink:href="#DejaVuSans-11" transform="translate(63.625 0)"/>
       <use xlink:href="#DejaVuSans-16" transform="translate(95.40625 0)"/>
       <use xlink:href="#DejaVuSans-13" transform="translate(159.03125 0)"/>
      </g>
     </g>
    </g>
    <g id="xtick_7">
     <g id="line2d_7">
      <g>
       <use xlink:href="#ma7bfe7cb4b" x="473.072557" y="232.3" style="fill: #58595a; stroke: #58595a; stroke-width: 0.8"/>
      </g>
     </g>
     <g id="text_7">
      <!-- 0.35 -->
      <g style="fill: #58595a" transform="translate(461.939745 246.897656) scale(0.1 -0.1)">
       <use xlink:href="#DejaVuSans-13"/>
       <use xlink:href="#DejaVuSans-11" transform="translate(63.625 0)"/>
       <use xlink:href="#DejaVuSans-16" transform="translate(95.40625 0)"/>
       <use xlink:href="#DejaVuSans-18" transform="translate(159.03125 0)"/>
      </g>
     </g>
    </g>
    <g id="xtick_8">
     <g id="line2d_8">
      <g>
       <use xlink:href="#ma7bfe7cb4b" x="541.82438" y="232.3" style="fill: #58595a; stroke: #58595a; stroke-width: 0.8"/>
      </g>
     </g>
     <g id="text_8">
      <!-- 0.40 -->
      <g style="fill: #58595a" transform="translate(530.691568 246.897656) scale(0.1 -0.1)">
       <defs>
        <path id="DejaVuSans-17" d="M 2419 4116 
L 825 1625 
L 2419 1625 
L 2419 4116 
z
M 2253 4666 
L 3047 4666 
L 3047 1625 
L 3713 1625 
L 3713 1100 
L 3047 1100 
L 3047 0 
L 2419 0 
L 2419 1100 
L 313 1100 
L 313 1709 
L 2253 4666 
z
" transform="scale(0.015625)"/>
       </defs>
       <use xlink:href="#DejaVuSans-13"/>
       <use xlink:href="#DejaVuSans-11" transform="translate(63.625 0)"/>
       <use xlink:href="#DejaVuSans-17" transform="translate(95.40625 0)"/>
       <use xlink:href="#DejaVuSans-13" transform="translate(159.03125 0)"/>
      </g>
     </g>
    </g>
    <g id="text_9">
     <!-- between-subgroup drift scale sb (σ of subgroup-mean walk) -->
     <g style="fill: #58595a" transform="translate(165.840565 260.518516) scale(0.095 -0.095)">
      <defs>
       <path id="DejaVuSans-45" d="M 3116 1747 
Q 3116 2381 2855 2742 
Q 2594 3103 2138 3103 
Q 1681 3103 1420 2742 
Q 1159 2381 1159 1747 
Q 1159 1113 1420 752 
Q 1681 391 2138 391 
Q 2594 391 2855 752 
Q 3116 1113 3116 1747 
z
M 1159 2969 
Q 1341 3281 1617 3432 
Q 1894 3584 2278 3584 
Q 2916 3584 3314 3078 
Q 3713 2572 3713 1747 
Q 3713 922 3314 415 
Q 2916 -91 2278 -91 
Q 1894 -91 1617 61 
Q 1341 213 1159 525 
L 1159 0 
L 581 0 
L 581 4863 
L 1159 4863 
L 1159 2969 
z
" transform="scale(0.015625)"/>
       <path id="DejaVuSans-48" d="M 3597 1894 
L 3597 1613 
L 953 1613 
Q 991 1019 1311 708 
Q 1631 397 2203 397 
Q 2534 397 2845 478 
Q 3156 559 3463 722 
L 3463 178 
Q 3153 47 2828 -22 
Q 2503 -91 2169 -91 
Q 1331 -91 842 396 
Q 353 884 353 1716 
Q 353 2575 817 3079 
Q 1281 3584 2069 3584 
Q 2775 3584 3186 3129 
Q 3597 2675 3597 1894 
z
M 3022 2063 
Q 3016 2534 2758 2815 
Q 2500 3097 2075 3097 
Q 1594 3097 1305 2825 
Q 1016 2553 972 2059 
L 3022 2063 
z
" transform="scale(0.015625)"/>
       <path id="DejaVuSans-57" d="M 1172 4494 
L 1172 3500 
L 2356 3500 
L 2356 3053 
L 1172 3053 
L 1172 1153 
Q 1172 725 1289 603 
Q 1406 481 1766 481 
L 2356 481 
L 2356 0 
L 1766 0 
Q 1100 0 847 248 
Q 594 497 594 1153 
L 594 3053 
L 172 3053 
L 172 3500 
L 594 3500 
L 594 4494 
L 1172 4494 
z
" transform="scale(0.015625)"/>
       <path id="DejaVuSans-5a" d="M 269 3500 
L 844 3500 
L 1563 769 
L 2278 3500 
L 2956 3500 
L 3675 769 
L 4391 3500 
L 4966 3500 
L 4050 0 
L 3372 0 
L 2619 2869 
L 1863 0 
L 1184 0 
L 269 3500 
z
" transform="scale(0.015625)"/>
       <path id="DejaVuSans-51" d="M 3513 2113 
L 3513 0 
L 2938 0 
L 2938 2094 
Q 2938 2591 2744 2837 
Q 2550 3084 2163 3084 
Q 1697 3084 1428 2787 
Q 1159 2491 1159 1978 
L 1159 0 
L 581 0 
L 581 3500 
L 1159 3500 
L 1159 2956 
Q 1366 3272 1645 3428 
Q 1925 3584 2291 3584 
Q 2894 3584 3203 3211 
Q 3513 2838 3513 2113 
z
" transform="scale(0.015625)"/>
       <path id="DejaVuSans-10" d="M 313 2009 
L 1997 2009 
L 1997 1497 
L 313 1497 
L 313 2009 
z
" transform="scale(0.015625)"/>
       <path id="DejaVuSans-56" d="M 2834 3397 
L 2834 2853 
Q 2591 2978 2328 3040 
Q 2066 3103 1784 3103 
Q 1356 3103 1142 2972 
Q 928 2841 928 2578 
Q 928 2378 1081 2264 
Q 1234 2150 1697 2047 
L 1894 2003 
Q 2506 1872 2764 1633 
Q 3022 1394 3022 966 
Q 3022 478 2636 193 
Q 2250 -91 1575 -91 
Q 1294 -91 989 -36 
Q 684 19 347 128 
L 347 722 
Q 666 556 975 473 
Q 1284 391 1588 391 
Q 1994 391 2212 530 
Q 2431 669 2431 922 
Q 2431 1156 2273 1281 
Q 2116 1406 1581 1522 
L 1381 1569 
Q 847 1681 609 1914 
Q 372 2147 372 2553 
Q 372 3047 722 3315 
Q 1072 3584 1716 3584 
Q 2034 3584 2315 3537 
Q 2597 3491 2834 3397 
z
" transform="scale(0.015625)"/>
       <path id="DejaVuSans-58" d="M 544 1381 
L 544 3500 
L 1119 3500 
L 1119 1403 
Q 1119 906 1312 657 
Q 1506 409 1894 409 
Q 2359 409 2629 706 
Q 2900 1003 2900 1516 
L 2900 3500 
L 3475 3500 
L 3475 0 
L 2900 0 
L 2900 538 
Q 2691 219 2414 64 
Q 2138 -91 1772 -91 
Q 1169 -91 856 284 
Q 544 659 544 1381 
z
M 1991 3584 
L 1991 3584 
z
" transform="scale(0.015625)"/>
       <path id="DejaVuSans-4a" d="M 2906 1791 
Q 2906 2416 2648 2759 
Q 2391 3103 1925 3103 
Q 1463 3103 1205 2759 
Q 947 2416 947 1791 
Q 947 1169 1205 825 
Q 1463 481 1925 481 
Q 2391 481 2648 825 
Q 2906 1169 2906 1791 
z
M 3481 434 
Q 3481 -459 3084 -895 
Q 2688 -1331 1869 -1331 
Q 1566 -1331 1297 -1286 
Q 1028 -1241 775 -1147 
L 775 -588 
Q 1028 -725 1275 -790 
Q 1522 -856 1778 -856 
Q 2344 -856 2625 -561 
Q 2906 -266 2906 331 
L 2906 616 
Q 2728 306 2450 153 
Q 2172 0 1784 0 
Q 1141 0 747 490 
Q 353 981 353 1791 
Q 353 2603 747 3093 
Q 1141 3584 1784 3584 
Q 2172 3584 2450 3431 
Q 2728 3278 2906 2969 
L 2906 3500 
L 3481 3500 
L 3481 434 
z
" transform="scale(0.015625)"/>
       <path id="DejaVuSans-55" d="M 2631 2963 
Q 2534 3019 2420 3045 
Q 2306 3072 2169 3072 
Q 1681 3072 1420 2755 
Q 1159 2438 1159 1844 
L 1159 0 
L 581 0 
L 581 3500 
L 1159 3500 
L 1159 2956 
Q 1341 3275 1631 3429 
Q 1922 3584 2338 3584 
Q 2397 3584 2469 3576 
Q 2541 3569 2628 3553 
L 2631 2963 
z
" transform="scale(0.015625)"/>
       <path id="DejaVuSans-52" d="M 1959 3097 
Q 1497 3097 1228 2736 
Q 959 2375 959 1747 
Q 959 1119 1226 758 
Q 1494 397 1959 397 
Q 2419 397 2687 759 
Q 2956 1122 2956 1747 
Q 2956 2369 2687 2733 
Q 2419 3097 1959 3097 
z
M 1959 3584 
Q 2709 3584 3137 3096 
Q 3566 2609 3566 1747 
Q 3566 888 3137 398 
Q 2709 -91 1959 -91 
Q 1206 -91 779 398 
Q 353 888 353 1747 
Q 353 2609 779 3096 
Q 1206 3584 1959 3584 
z
" transform="scale(0.015625)"/>
       <path id="DejaVuSans-53" d="M 1159 525 
L 1159 -1331 
L 581 -1331 
L 581 3500 
L 1159 3500 
L 1159 2969 
Q 1341 3281 1617 3432 
Q 1894 3584 2278 3584 
Q 2916 3584 3314 3078 
Q 3713 2572 3713 1747 
Q 3713 922 3314 415 
Q 2916 -91 2278 -91 
Q 1894 -91 1617 61 
Q 1341 213 1159 525 
z
M 3116 1747 
Q 3116 2381 2855 2742 
Q 2594 3103 2138 3103 
Q 1681 3103 1420 2742 
Q 1159 2381 1159 1747 
Q 1159 1113 1420 752 
Q 1681 391 2138 391 
Q 2594 391 2855 752 
Q 3116 1113 3116 1747 
z
" transform="scale(0.015625)"/>
       <path id="DejaVuSans-3" transform="scale(0.015625)"/>
       <path id="DejaVuSans-47" d="M 2906 2969 
L 2906 4863 
L 3481 4863 
L 3481 0 
L 2906 0 
L 2906 525 
Q 2725 213 2448 61 
Q 2172 -91 1784 -91 
Q 1150 -91 751 415 
Q 353 922 353 1747 
Q 353 2572 751 3078 
Q 1150 3584 1784 3584 
Q 2172 3584 2448 3432 
Q 2725 3281 2906 2969 
z
M 947 1747 
Q 947 1113 1208 752 
Q 1469 391 1925 391 
Q 2381 391 2643 752 
Q 2906 1113 2906 1747 
Q 2906 2381 2643 2742 
Q 2381 3103 1925 3103 
Q 1469 3103 1208 2742 
Q 947 2381 947 1747 
z
" transform="scale(0.015625)"/>
       <path id="DejaVuSans-4c" d="M 603 3500 
L 1178 3500 
L 1178 0 
L 603 0 
L 603 3500 
z
M 603 4863 
L 1178 4863 
L 1178 4134 
L 603 4134 
L 603 4863 
z
" transform="scale(0.015625)"/>
       <path id="DejaVuSans-49" d="M 2375 4863 
L 2375 4384 
L 1825 4384 
Q 1516 4384 1395 4259 
Q 1275 4134 1275 3809 
L 1275 3500 
L 2222 3500 
L 2222 3053 
L 1275 3053 
L 1275 0 
L 697 0 
L 697 3053 
L 147 3053 
L 147 3500 
L 697 3500 
L 697 3744 
Q 697 4328 969 4595 
Q 1241 4863 1831 4863 
L 2375 4863 
z
" transform="scale(0.015625)"/>
       <path id="DejaVuSans-46" d="M 3122 3366 
L 3122 2828 
Q 2878 2963 2633 3030 
Q 2388 3097 2138 3097 
Q 1578 3097 1268 2742 
Q 959 2388 959 1747 
Q 959 1106 1268 751 
Q 1578 397 2138 397 
Q 2388 397 2633 464 
Q 2878 531 3122 666 
L 3122 134 
Q 2881 22 2623 -34 
Q 2366 -91 2075 -91 
Q 1284 -91 818 406 
Q 353 903 353 1747 
Q 353 2603 823 3093 
Q 1294 3584 2113 3584 
Q 2378 3584 2631 3529 
Q 2884 3475 3122 3366 
z
" transform="scale(0.015625)"/>
       <path id="DejaVuSans-44" d="M 2194 1759 
Q 1497 1759 1228 1600 
Q 959 1441 959 1056 
Q 959 750 1161 570 
Q 1363 391 1709 391 
Q 2188 391 2477 730 
Q 2766 1069 2766 1631 
L 2766 1759 
L 2194 1759 
z
M 3341 1997 
L 3341 0 
L 2766 0 
L 2766 531 
Q 2569 213 2275 61 
Q 1981 -91 1556 -91 
Q 1019 -91 701 211 
Q 384 513 384 1019 
Q 384 1609 779 1909 
Q 1175 2209 1959 2209 
L 2766 2209 
L 2766 2266 
Q 2766 2663 2505 2880 
Q 2244 3097 1772 3097 
Q 1472 3097 1187 3025 
Q 903 2953 641 2809 
L 641 3341 
Q 956 3463 1253 3523 
Q 1550 3584 1831 3584 
Q 2591 3584 2966 3190 
Q 3341 2797 3341 1997 
z
" transform="scale(0.015625)"/>
       <path id="DejaVuSans-4f" d="M 603 4863 
L 1178 4863 
L 1178 0 
L 603 0 
L 603 4863 
z
" transform="scale(0.015625)"/>
       <path id="DejaVuSans-b" d="M 1984 4856 
Q 1566 4138 1362 3434 
Q 1159 2731 1159 2009 
Q 1159 1288 1364 580 
Q 1569 -128 1984 -844 
L 1484 -844 
Q 1016 -109 783 600 
Q 550 1309 550 2009 
Q 550 2706 781 3412 
Q 1013 4119 1484 4856 
L 1984 4856 
z
" transform="scale(0.015625)"/>
       <path id="DejaVuSans-357" d="M 1959 3044 
Q 1484 3044 1228 2700 
Q 959 2341 959 1747 
Q 959 1119 1226 758 
Q 1494 397 1959 397 
Q 2419 397 2687 759 
Q 2956 1122 2956 1747 
Q 2956 2319 2688 2700 
Q 2441 3044 1959 3044 
z
M 1959 3500 
L 3869 3500 
L 3869 2925 
L 3225 2925 
Q 3566 2438 3566 1747 
Q 3566 888 3138 400 
Q 2709 -91 1959 -91 
Q 1206 -91 781 400 
Q 353 888 353 1747 
Q 353 2613 781 3097 
Q 1134 3500 1959 3500 
z
" transform="scale(0.015625)"/>
       <path id="DejaVuSans-50" d="M 3328 2828 
Q 3544 3216 3844 3400 
Q 4144 3584 4550 3584 
Q 5097 3584 5394 3201 
Q 5691 2819 5691 2113 
L 5691 0 
L 5113 0 
L 5113 2094 
Q 5113 2597 4934 2840 
Q 4756 3084 4391 3084 
Q 3944 3084 3684 2787 
Q 3425 2491 3425 1978 
L 3425 0 
L 2847 0 
L 2847 2094 
Q 2847 2600 2669 2842 
Q 2491 3084 2119 3084 
Q 1678 3084 1418 2786 
Q 1159 2488 1159 1978 
L 1159 0 
L 581 0 
L 581 3500 
L 1159 3500 
L 1159 2956 
Q 1356 3278 1631 3431 
Q 1906 3584 2284 3584 
Q 2666 3584 2933 3390 
Q 3200 3197 3328 2828 
z
" transform="scale(0.015625)"/>
       <path id="DejaVuSans-4e" d="M 581 4863 
L 1159 4863 
L 1159 1991 
L 2875 3500 
L 3609 3500 
L 1753 1863 
L 3688 0 
L 2938 0 
L 1159 1709 
L 1159 0 
L 581 0 
L 581 4863 
z
" transform="scale(0.015625)"/>
       <path id="DejaVuSans-c" d="M 513 4856 
L 1013 4856 
Q 1481 4119 1714 3412 
Q 1947 2706 1947 2009 
Q 1947 1309 1714 600 
Q 1481 -109 1013 -844 
L 513 -844 
Q 928 -128 1133 580 
Q 1338 1288 1338 2009 
Q 1338 2731 1133 3434 
Q 928 4138 513 4856 
z
" transform="scale(0.015625)"/>
      </defs>
      <use xlink:href="#DejaVuSans-45"/>
      <use xlink:href="#DejaVuSans-48" transform="translate(63.484375 0)"/>
      <use xlink:href="#DejaVuSans-57" transform="translate(125.015625 0)"/>
      <use xlink:href="#DejaVuSans-5a" transform="translate(164.21875 0)"/>
      <use xlink:href="#DejaVuSans-48" transform="translate(246 0)"/>
      <use xlink:href="#DejaVuSans-48" transform="translate(307.53125 0)"/>
      <use xlink:href="#DejaVuSans-51" transform="translate(369.0625 0)"/>
      <use xlink:href="#DejaVuSans-10" transform="translate(432.4375 0)"/>
      <use xlink:href="#DejaVuSans-56" transform="translate(468.515625 0)"/>
      <use xlink:href="#DejaVuSans-58" transform="translate(520.609375 0)"/>
      <use xlink:href="#DejaVuSans-45" transform="translate(583.984375 0)"/>
      <use xlink:href="#DejaVuSans-4a" transform="translate(647.46875 0)"/>
      <use xlink:href="#DejaVuSans-55" transform="translate(710.953125 0)"/>
      <use xlink:href="#DejaVuSans-52" transform="translate(749.859375 0)"/>
      <use xlink:href="#DejaVuSans-58" transform="translate(811.046875 0)"/>
      <use xlink:href="#DejaVuSans-53" transform="translate(874.421875 0)"/>
      <use xlink:href="#DejaVuSans-3" transform="translate(937.90625 0)"/>
      <use xlink:href="#DejaVuSans-47" transform="translate(969.6875 0)"/>
      <use xlink:href="#DejaVuSans-55" transform="translate(1033.171875 0)"/>
      <use xlink:href="#DejaVuSans-4c" transform="translate(1074.28125 0)"/>
      <use xlink:href="#DejaVuSans-49" transform="translate(1102.0625 0)"/>
      <use xlink:href="#DejaVuSans-57" transform="translate(1135.515625 0)"/>
      <use xlink:href="#DejaVuSans-3" transform="translate(1174.71875 0)"/>
      <use xlink:href="#DejaVuSans-56" transform="translate(1206.5 0)"/>
      <use xlink:href="#DejaVuSans-46" transform="translate(1258.59375 0)"/>
      <use xlink:href="#DejaVuSans-44" transform="translate(1313.578125 0)"/>
      <use xlink:href="#DejaVuSans-4f" transform="translate(1374.859375 0)"/>
      <use xlink:href="#DejaVuSans-48" transform="translate(1402.640625 0)"/>
      <use xlink:href="#DejaVuSans-3" transform="translate(1464.171875 0)"/>
      <use xlink:href="#DejaVuSans-56" transform="translate(1495.953125 0)"/>
      <use xlink:href="#DejaVuSans-45" transform="translate(1548.046875 0)"/>
      <use xlink:href="#DejaVuSans-3" transform="translate(1611.53125 0)"/>
      <use xlink:href="#DejaVuSans-b" transform="translate(1643.3125 0)"/>
      <use xlink:href="#DejaVuSans-357" transform="translate(1682.328125 0)"/>
      <use xlink:href="#DejaVuSans-3" transform="translate(1745.703125 0)"/>
      <use xlink:href="#DejaVuSans-52" transform="translate(1777.484375 0)"/>
      <use xlink:href="#DejaVuSans-49" transform="translate(1838.671875 0)"/>
      <use xlink:href="#DejaVuSans-3" transform="translate(1873.875 0)"/>
      <use xlink:href="#DejaVuSans-56" transform="translate(1905.65625 0)"/>
      <use xlink:href="#DejaVuSans-58" transform="translate(1957.75 0)"/>
      <use xlink:href="#DejaVuSans-45" transform="translate(2021.125 0)"/>
      <use xlink:href="#DejaVuSans-4a" transform="translate(2084.609375 0)"/>
      <use xlink:href="#DejaVuSans-55" transform="translate(2148.09375 0)"/>
      <use xlink:href="#DejaVuSans-52" transform="translate(2187 0)"/>
      <use xlink:href="#DejaVuSans-58" transform="translate(2248.1875 0)"/>
      <use xlink:href="#DejaVuSans-53" transform="translate(2311.5625 0)"/>
      <use xlink:href="#DejaVuSans-10" transform="translate(2375.046875 0)"/>
      <use xlink:href="#DejaVuSans-50" transform="translate(2411.125 0)"/>
      <use xlink:href="#DejaVuSans-48" transform="translate(2508.53125 0)"/>
      <use xlink:href="#DejaVuSans-44" transform="translate(2570.0625 0)"/>
      <use xlink:href="#DejaVuSans-51" transform="translate(2631.34375 0)"/>
      <use xlink:href="#DejaVuSans-3" transform="translate(2694.71875 0)"/>
      <use xlink:href="#DejaVuSans-5a" transform="translate(2726.5 0)"/>
      <use xlink:href="#DejaVuSans-44" transform="translate(2808.28125 0)"/>
      <use xlink:href="#DejaVuSans-4f" transform="translate(2869.5625 0)"/>
      <use xlink:href="#DejaVuSans-4e" transform="translate(2897.34375 0)"/>
      <use xlink:href="#DejaVuSans-c" transform="translate(2955.25 0)"/>
     </g>
    </g>
   </g>
   <g id="matplotlib.axis_2">
    <g id="ytick_1">
     <g id="line2d_9">
      <defs>
       <path id="ma643077c5b" d="M 0 0 
L -3.5 0 
" style="stroke: #58595a; stroke-width: 0.8"/>
      </defs>
      <g>
       <use xlink:href="#ma643077c5b" x="50.936364" y="232.3" style="fill: #58595a; stroke: #58595a; stroke-width: 0.8"/>
      </g>
     </g>
     <g id="text_10">
      <!-- 0 -->
      <g style="fill: #58595a" transform="translate(37.573864 236.098828) scale(0.1 -0.1)">
       <use xlink:href="#DejaVuSans-13"/>
      </g>
     </g>
    </g>
    <g id="ytick_2">
     <g id="line2d_10">
      <g>
       <use xlink:href="#ma643077c5b" x="50.936364" y="193.254113" style="fill: #58595a; stroke: #58595a; stroke-width: 0.8"/>
      </g>
     </g>
     <g id="text_11">
      <!-- 20 -->
      <g style="fill: #58595a" transform="translate(31.211364 197.052941) scale(0.1 -0.1)">
       <use xlink:href="#DejaVuSans-15"/>
       <use xlink:href="#DejaVuSans-13" transform="translate(63.625 0)"/>
      </g>
     </g>
    </g>
    <g id="ytick_3">
     <g id="line2d_11">
      <g>
       <use xlink:href="#ma643077c5b" x="50.936364" y="154.208225" style="fill: #58595a; stroke: #58595a; stroke-width: 0.8"/>
      </g>
     </g>
     <g id="text_12">
      <!-- 40 -->
      <g style="fill: #58595a" transform="translate(31.211364 158.007053) scale(0.1 -0.1)">
       <use xlink:href="#DejaVuSans-17"/>
       <use xlink:href="#DejaVuSans-13" transform="translate(63.625 0)"/>
      </g>
     </g>
    </g>
    <g id="ytick_4">
     <g id="line2d_12">
      <g>
       <use xlink:href="#ma643077c5b" x="50.936364" y="115.162338" style="fill: #58595a; stroke: #58595a; stroke-width: 0.8"/>
      </g>
     </g>
     <g id="text_13">
      <!-- 60 -->
      <g style="fill: #58595a" transform="translate(31.211364 118.961166) scale(0.1 -0.1)">
       <defs>
        <path id="DejaVuSans-19" d="M 2113 2584 
Q 1688 2584 1439 2293 
Q 1191 2003 1191 1497 
Q 1191 994 1439 701 
Q 1688 409 2113 409 
Q 2538 409 2786 701 
Q 3034 994 3034 1497 
Q 3034 2003 2786 2293 
Q 2538 2584 2113 2584 
z
M 3366 4563 
L 3366 3988 
Q 3128 4100 2886 4159 
Q 2644 4219 2406 4219 
Q 1781 4219 1451 3797 
Q 1122 3375 1075 2522 
Q 1259 2794 1537 2939 
Q 1816 3084 2150 3084 
Q 2853 3084 3261 2657 
Q 3669 2231 3669 1497 
Q 3669 778 3244 343 
Q 2819 -91 2113 -91 
Q 1303 -91 875 529 
Q 447 1150 447 2328 
Q 447 3434 972 4092 
Q 1497 4750 2381 4750 
Q 2619 4750 2861 4703 
Q 3103 4656 3366 4563 
z
" transform="scale(0.015625)"/>
       </defs>
       <use xlink:href="#DejaVuSans-19"/>
       <use xlink:href="#DejaVuSans-13" transform="translate(63.625 0)"/>
      </g>
     </g>
    </g>
    <g id="ytick_5">
     <g id="line2d_13">
      <g>
       <use xlink:href="#ma643077c5b" x="50.936364" y="76.11645" style="fill: #58595a; stroke: #58595a; stroke-width: 0.8"/>
      </g>
     </g>
     <g id="text_14">
      <!-- 80 -->
      <g style="fill: #58595a" transform="translate(31.211364 79.915278) scale(0.1 -0.1)">
       <defs>
        <path id="DejaVuSans-1b" d="M 2034 2216 
Q 1584 2216 1326 1975 
Q 1069 1734 1069 1313 
Q 1069 891 1326 650 
Q 1584 409 2034 409 
Q 2484 409 2743 651 
Q 3003 894 3003 1313 
Q 3003 1734 2745 1975 
Q 2488 2216 2034 2216 
z
M 1403 2484 
Q 997 2584 770 2862 
Q 544 3141 544 3541 
Q 544 4100 942 4425 
Q 1341 4750 2034 4750 
Q 2731 4750 3128 4425 
Q 3525 4100 3525 3541 
Q 3525 3141 3298 2862 
Q 3072 2584 2669 2484 
Q 3125 2378 3379 2068 
Q 3634 1759 3634 1313 
Q 3634 634 3220 271 
Q 2806 -91 2034 -91 
Q 1263 -91 848 271 
Q 434 634 434 1313 
Q 434 1759 690 2068 
Q 947 2378 1403 2484 
z
M 1172 3481 
Q 1172 3119 1398 2916 
Q 1625 2713 2034 2713 
Q 2441 2713 2670 2916 
Q 2900 3119 2900 3481 
Q 2900 3844 2670 4047 
Q 2441 4250 2034 4250 
Q 1625 4250 1398 4047 
Q 1172 3844 1172 3481 
z
" transform="scale(0.015625)"/>
       </defs>
       <use xlink:href="#DejaVuSans-1b"/>
       <use xlink:href="#DejaVuSans-13" transform="translate(63.625 0)"/>
      </g>
     </g>
    </g>
    <g id="ytick_6">
     <g id="line2d_14">
      <g>
       <use xlink:href="#ma643077c5b" x="50.936364" y="37.070563" style="fill: #58595a; stroke: #58595a; stroke-width: 0.8"/>
      </g>
     </g>
     <g id="text_15">
      <!-- 100 -->
      <g style="fill: #58595a" transform="translate(24.848864 40.869391) scale(0.1 -0.1)">
       <use xlink:href="#DejaVuSans-14"/>
       <use xlink:href="#DejaVuSans-13" transform="translate(63.625 0)"/>
       <use xlink:href="#DejaVuSans-13" transform="translate(127.25 0)"/>
      </g>
     </g>
    </g>
    <g id="text_16">
     <!-- % of simulated drift characteristics -->
     <g style="fill: #58595a" transform="translate(18.566637 212.943647) rotate(-90) scale(0.095 -0.095)">
      <defs>
       <path id="DejaVuSans-8" d="M 4653 2053 
Q 4381 2053 4226 1822 
Q 4072 1591 4072 1178 
Q 4072 772 4226 539 
Q 4381 306 4653 306 
Q 4919 306 5073 539 
Q 5228 772 5228 1178 
Q 5228 1588 5073 1820 
Q 4919 2053 4653 2053 
z
M 4653 2450 
Q 5147 2450 5437 2106 
Q 5728 1763 5728 1178 
Q 5728 594 5436 251 
Q 5144 -91 4653 -91 
Q 4153 -91 3862 251 
Q 3572 594 3572 1178 
Q 3572 1766 3864 2108 
Q 4156 2450 4653 2450 
z
M 1428 4353 
Q 1159 4353 1004 4120 
Q 850 3888 850 3481 
Q 850 3069 1003 2837 
Q 1156 2606 1428 2606 
Q 1700 2606 1854 2837 
Q 2009 3069 2009 3481 
Q 2009 3884 1853 4118 
Q 1697 4353 1428 4353 
z
M 4250 4750 
L 4750 4750 
L 1831 -91 
L 1331 -91 
L 4250 4750 
z
M 1428 4750 
Q 1922 4750 2215 4408 
Q 2509 4066 2509 3481 
Q 2509 2891 2217 2550 
Q 1925 2209 1428 2209 
Q 931 2209 642 2551 
Q 353 2894 353 3481 
Q 353 4063 643 4406 
Q 934 4750 1428 4750 
z
" transform="scale(0.015625)"/>
       <path id="DejaVuSans-4b" d="M 3513 2113 
L 3513 0 
L 2938 0 
L 2938 2094 
Q 2938 2591 2744 2837 
Q 2550 3084 2163 3084 
Q 1697 3084 1428 2787 
Q 1159 2491 1159 1978 
L 1159 0 
L 581 0 
L 581 4863 
L 1159 4863 
L 1159 2956 
Q 1366 3272 1645 3428 
Q 1925 3584 2291 3584 
Q 2894 3584 3203 3211 
Q 3513 2838 3513 2113 
z
" transform="scale(0.015625)"/>
      </defs>
      <use xlink:href="#DejaVuSans-8"/>
      <use xlink:href="#DejaVuSans-3" transform="translate(95.015625 0)"/>
      <use xlink:href="#DejaVuSans-52" transform="translate(126.796875 0)"/>
      <use xlink:href="#DejaVuSans-49" transform="translate(187.984375 0)"/>
      <use xlink:href="#DejaVuSans-3" transform="translate(223.1875 0)"/>
      <use xlink:href="#DejaVuSans-56" transform="translate(254.96875 0)"/>
      <use xlink:href="#DejaVuSans-4c" transform="translate(307.0625 0)"/>
      <use xlink:href="#DejaVuSans-50" transform="translate(334.84375 0)"/>
      <use xlink:href="#DejaVuSans-58" transform="translate(432.25 0)"/>
      <use xlink:href="#DejaVuSans-4f" transform="translate(495.625 0)"/>
      <use xlink:href="#DejaVuSans-44" transform="translate(523.40625 0)"/>
      <use xlink:href="#DejaVuSans-57" transform="translate(584.6875 0)"/>
      <use xlink:href="#DejaVuSans-48" transform="translate(623.890625 0)"/>
      <use xlink:href="#DejaVuSans-47" transform="translate(685.421875 0)"/>
      <use xlink:href="#DejaVuSans-3" transform="translate(748.90625 0)"/>
      <use xlink:href="#DejaVuSans-47" transform="translate(780.6875 0)"/>
      <use xlink:href="#DejaVuSans-55" transform="translate(844.171875 0)"/>
      <use xlink:href="#DejaVuSans-4c" transform="translate(885.28125 0)"/>
      <use xlink:href="#DejaVuSans-49" transform="translate(913.0625 0)"/>
      <use xlink:href="#DejaVuSans-57" transform="translate(946.515625 0)"/>
      <use xlink:href="#DejaVuSans-3" transform="translate(985.71875 0)"/>
      <use xlink:href="#DejaVuSans-46" transform="translate(1017.5 0)"/>
      <use xlink:href="#DejaVuSans-4b" transform="translate(1072.484375 0)"/>
      <use xlink:href="#DejaVuSans-44" transform="translate(1135.859375 0)"/>
      <use xlink:href="#DejaVuSans-55" transform="translate(1197.140625 0)"/>
      <use xlink:href="#DejaVuSans-44" transform="translate(1238.25 0)"/>
      <use xlink:href="#DejaVuSans-46" transform="translate(1299.53125 0)"/>
      <use xlink:href="#DejaVuSans-57" transform="translate(1354.515625 0)"/>
      <use xlink:href="#DejaVuSans-48" transform="translate(1393.71875 0)"/>
      <use xlink:href="#DejaVuSans-55" transform="translate(1455.25 0)"/>
      <use xlink:href="#DejaVuSans-4c" transform="translate(1496.359375 0)"/>
      <use xlink:href="#DejaVuSans-56" transform="translate(1524.140625 0)"/>
      <use xlink:href="#DejaVuSans-57" transform="translate(1576.234375 0)"/>
      <use xlink:href="#DejaVuSans-4c" transform="translate(1615.4375 0)"/>
      <use xlink:href="#DejaVuSans-46" transform="translate(1643.21875 0)"/>
      <use xlink:href="#DejaVuSans-56" transform="translate(1698.203125 0)"/>
     </g>
    </g>
   </g>
   <g id="line2d_15">
    <path d="M 74.311983 232.3 
L 93.791667 232.3 
L 113.27135 231.519082 
L 132.751033 230.738165 
L 152.230716 225.27174 
L 171.710399 222.928987 
L 191.190083 202.625126 
L 210.669766 198.720537 
L 230.149449 191.692277 
L 249.629132 170.607498 
L 269.108815 153.427307 
L 288.588499 130.780693 
L 308.068182 114.38142 
L 327.547865 99.543983 
L 347.027548 87.830216 
L 366.507231 76.897368 
L 385.986915 73.773697 
L 405.466598 59.717177 
L 424.946281 55.812589 
L 444.425964 50.346165 
L 463.905647 48.003411 
L 483.385331 47.222494 
L 502.865014 48.003411 
L 522.344697 44.87974 
L 541.82438 43.317905 
" clip-path="url(#p842a906667)" style="fill: none; stroke: #c0392b; stroke-width: 2; stroke-linecap: square"/>
   </g>
   <g id="line2d_16">
    <path d="M 74.311983 232.3 
L 93.791667 232.3 
L 113.27135 231.519082 
L 132.751033 230.738165 
L 152.230716 225.27174 
L 171.710399 222.928987 
L 191.190083 203.406043 
L 210.669766 199.501455 
L 230.149449 191.692277 
L 249.629132 172.950251 
L 269.108815 158.112814 
L 288.588499 133.123446 
L 308.068182 117.505091 
L 327.547865 111.257749 
L 347.027548 100.3249 
L 366.507231 84.706545 
L 385.986915 88.611134 
L 405.466598 76.897368 
L 424.946281 80.021039 
L 444.425964 67.526355 
L 463.905647 72.992779 
L 483.385331 76.11645 
L 502.865014 75.335532 
L 522.344697 69.08819 
L 541.82438 76.11645 
" clip-path="url(#p842a906667)" style="fill: none; stroke-dasharray: 6.66,2.88; stroke-dashoffset: 0; stroke: #2e2f31; stroke-width: 1.8"/>
   </g>
   <g id="line2d_17">
    <path d="M 50.936364 134.685281 
L 565.2 134.685281 
" clip-path="url(#p842a906667)" style="fill: none; stroke-dasharray: 0.8,1.32; stroke-dashoffset: 0; stroke: #7a7a7a; stroke-width: 0.8"/>
   </g>
   <g id="line2d_18">
    <path d="M 335.568911 232.3 
L 335.568911 27.309091 
" clip-path="url(#p842a906667)" style="fill: none; stroke-dasharray: 0.8,1.32; stroke-dashoffset: 0; stroke: #7a7a7a; stroke-opacity: 0.7; stroke-width: 0.8"/>
   </g>
   <g id="patch_4">
    <path d="M 50.936364 232.3 
L 50.936364 27.309091 
" style="fill: none; stroke: #7a7a7a; stroke-width: 0.8; stroke-linejoin: miter; stroke-linecap: square"/>
   </g>
   <g id="patch_5">
    <path d="M 565.2 232.3 
L 565.2 27.309091 
" style="fill: none; stroke: #7a7a7a; stroke-width: 0.8; stroke-linejoin: miter; stroke-linecap: square"/>
   </g>
   <g id="patch_6">
    <path d="M 50.936364 232.3 
L 565.2 232.3 
" style="fill: none; stroke: #7a7a7a; stroke-width: 0.8; stroke-linejoin: miter; stroke-linecap: square"/>
   </g>
   <g id="patch_7">
    <path d="M 50.936364 27.309091 
L 565.2 27.309091 
" style="fill: none; stroke: #7a7a7a; stroke-width: 0.8; stroke-linejoin: miter; stroke-linecap: square"/>
   </g>
   <g id="text_17">
    <!-- generator -->
    <g style="fill: #7a7a7a" transform="translate(317.050942 217.441066) scale(0.075 -0.075)">
     <use xlink:href="#DejaVuSans-4a"/>
     <use xlink:href="#DejaVuSans-48" transform="translate(63.484375 0)"/>
     <use xlink:href="#DejaVuSans-51" transform="translate(125.015625 0)"/>
     <use xlink:href="#DejaVuSans-48" transform="translate(188.390625 0)"/>
     <use xlink:href="#DejaVuSans-55" transform="translate(249.921875 0)"/>
     <use xlink:href="#DejaVuSans-44" transform="translate(291.03125 0)"/>
     <use xlink:href="#DejaVuSans-57" transform="translate(352.3125 0)"/>
     <use xlink:href="#DejaVuSans-52" transform="translate(391.515625 0)"/>
     <use xlink:href="#DejaVuSans-55" transform="translate(452.703125 0)"/>
    </g>
    <!-- sb range -->
    <g style="fill: #7a7a7a" transform="translate(319.138638 226.443117) scale(0.075 -0.075)">
     <use xlink:href="#DejaVuSans-56"/>
     <use xlink:href="#DejaVuSans-45" transform="translate(52.09375 0)"/>
     <use xlink:href="#DejaVuSans-3" transform="translate(115.578125 0)"/>
     <use xlink:href="#DejaVuSans-55" transform="translate(147.359375 0)"/>
     <use xlink:href="#DejaVuSans-44" transform="translate(188.46875 0)"/>
     <use xlink:href="#DejaVuSans-51" transform="translate(249.75 0)"/>
     <use xlink:href="#DejaVuSans-4a" transform="translate(313.125 0)"/>
     <use xlink:href="#DejaVuSans-48" transform="translate(376.609375 0)"/>
    </g>
   </g>
   <g id="text_18">
    <!-- Gate operating curve: drift strength vs fail / flip -->
    <g style="fill: #2e2f31" transform="translate(50.936364 19.309091) scale(0.11 -0.11)">
     <defs>
      <path id="DejaVuSans-2a" d="M 3809 666 
L 3809 1919 
L 2778 1919 
L 2778 2438 
L 4434 2438 
L 4434 434 
Q 4069 175 3628 42 
Q 3188 -91 2688 -91 
Q 1594 -91 976 548 
Q 359 1188 359 2328 
Q 359 3472 976 4111 
Q 1594 4750 2688 4750 
Q 3144 4750 3555 4637 
Q 3966 4525 4313 4306 
L 4313 3634 
Q 3963 3931 3569 4081 
Q 3175 4231 2741 4231 
Q 1884 4231 1454 3753 
Q 1025 3275 1025 2328 
Q 1025 1384 1454 906 
Q 1884 428 2741 428 
Q 3075 428 3337 486 
Q 3600 544 3809 666 
z
" transform="scale(0.015625)"/>
      <path id="DejaVuSans-59" d="M 191 3500 
L 800 3500 
L 1894 563 
L 2988 3500 
L 3597 3500 
L 2284 0 
L 1503 0 
L 191 3500 
z
" transform="scale(0.015625)"/>
      <path id="DejaVuSans-1d" d="M 750 794 
L 1409 794 
L 1409 0 
L 750 0 
L 750 794 
z
M 750 3309 
L 1409 3309 
L 1409 2516 
L 750 2516 
L 750 3309 
z
" transform="scale(0.015625)"/>
      <path id="DejaVuSans-12" d="M 1625 4666 
L 2156 4666 
L 531 -594 
L 0 -594 
L 1625 4666 
z
" transform="scale(0.015625)"/>
      <path id="DejaVuSans-13b0" d="M 1831 4863 
L 3431 4863 
L 3431 0 
L 2853 0 
L 2853 4384 
L 1825 4384 
Q 1516 4384 1395 4259 
Q 1275 4134 1275 3809 
L 1275 3500 
L 2222 3500 
L 2222 3053 
L 1275 3053 
L 1275 0 
L 697 0 
L 697 3053 
L 147 3053 
L 147 3500 
L 697 3500 
L 697 3744 
Q 697 4328 969 4595 
Q 1241 4863 1831 4863 
z
" transform="scale(0.015625)"/>
     </defs>
     <use xlink:href="#DejaVuSans-2a"/>
     <use xlink:href="#DejaVuSans-44" transform="translate(77.484375 0)"/>
     <use xlink:href="#DejaVuSans-57" transform="translate(138.765625 0)"/>
     <use xlink:href="#DejaVuSans-48" transform="translate(177.96875 0)"/>
     <use xlink:href="#DejaVuSans-3" transform="translate(239.5 0)"/>
     <use xlink:href="#DejaVuSans-52" transform="translate(271.28125 0)"/>
     <use xlink:href="#DejaVuSans-53" transform="translate(332.46875 0)"/>
     <use xlink:href="#DejaVuSans-48" transform="translate(395.953125 0)"/>
     <use xlink:href="#DejaVuSans-55" transform="translate(457.484375 0)"/>
     <use xlink:href="#DejaVuSans-44" transform="translate(498.59375 0)"/>
     <use xlink:href="#DejaVuSans-57" transform="translate(559.875 0)"/>
     <use xlink:href="#DejaVuSans-4c" transform="translate(599.078125 0)"/>
     <use xlink:href="#DejaVuSans-51" transform="translate(626.859375 0)"/>
     <use xlink:href="#DejaVuSans-4a" transform="translate(690.234375 0)"/>
     <use xlink:href="#DejaVuSans-3" transform="translate(753.71875 0)"/>
     <use xlink:href="#DejaVuSans-46" transform="translate(785.5 0)"/>
     <use xlink:href="#DejaVuSans-58" transform="translate(840.484375 0)"/>
     <use xlink:href="#DejaVuSans-55" transform="translate(903.859375 0)"/>
     <use xlink:href="#DejaVuSans-59" transform="translate(944.96875 0)"/>
     <use xlink:href="#DejaVuSans-48" transform="translate(1004.15625 0)"/>
     <use xlink:href="#DejaVuSans-1d" transform="translate(1065.6875 0)"/>
     <use xlink:href="#DejaVuSans-3" transform="translate(1099.375 0)"/>
     <use xlink:href="#DejaVuSans-47" transform="translate(1131.15625 0)"/>
     <use xlink:href="#DejaVuSans-55" transform="translate(1194.640625 0)"/>
     <use xlink:href="#DejaVuSans-4c" transform="translate(1235.75 0)"/>
     <use xlink:href="#DejaVuSans-49" transform="translate(1263.53125 0)"/>
     <use xlink:href="#DejaVuSans-57" transform="translate(1296.984375 0)"/>
     <use xlink:href="#DejaVuSans-3" transform="translate(1336.1875 0)"/>
     <use xlink:href="#DejaVuSans-56" transform="translate(1367.96875 0)"/>
     <use xlink:href="#DejaVuSans-57" transform="translate(1420.0625 0)"/>
     <use xlink:href="#DejaVuSans-55" transform="translate(1459.265625 0)"/>
     <use xlink:href="#DejaVuSans-48" transform="translate(1498.171875 0)"/>
     <use xlink:href="#DejaVuSans-51" transform="translate(1559.703125 0)"/>
     <use xlink:href="#DejaVuSans-4a" transform="translate(1623.078125 0)"/>
     <use xlink:href="#DejaVuSans-57" transform="translate(1686.5625 0)"/>
     <use xlink:href="#DejaVuSans-4b" transform="translate(1725.765625 0)"/>
     <use xlink:href="#DejaVuSans-3" transform="translate(1789.140625 0)"/>
     <use xlink:href="#DejaVuSans-59" transform="translate(1820.921875 0)"/>
     <use xlink:href="#DejaVuSans-56" transform="translate(1880.109375 0)"/>
     <use xlink:href="#DejaVuSans-3" transform="translate(1932.203125 0)"/>
     <use xlink:href="#DejaVuSans-49" transform="translate(1963.984375 0)"/>
     <use xlink:href="#DejaVuSans-44" transform="translate(1999.1875 0)"/>
     <use xlink:href="#DejaVuSans-4c" transform="translate(2060.46875 0)"/>
     <use xlink:href="#DejaVuSans-4f" transform="translate(2088.25 0)"/>
     <use xlink:href="#DejaVuSans-3" transform="translate(2116.03125 0)"/>
     <use xlink:href="#DejaVuSans-12" transform="translate(2147.8125 0)"/>
     <use xlink:href="#DejaVuSans-3" transform="translate(2181.5 0)"/>
     <use xlink:href="#DejaVuSans-13b0" transform="translate(2213.28125 0)"/>
     <use xlink:href="#DejaVuSans-4c" transform="translate(2276.265625 0)"/>
     <use xlink:href="#DejaVuSans-53" transform="translate(2304.046875 0)"/>
    </g>
   </g>
   <g id="legend_1">
    <g id="line2d_19">
     <path d="M 408.019062 206.882344 
L 416.519062 206.882344 
L 425.019062 206.882344 
" style="fill: none; stroke: #c0392b; stroke-width: 2; stroke-linecap: square"/>
    </g>
    <g id="text_19">
     <!-- Ppk fail rate (drift population) -->
     <g style="fill: #2e2f31" transform="translate(431.819062 209.857344) scale(0.085 -0.085)">
      <defs>
       <path id="DejaVuSans-33" d="M 1259 4147 
L 1259 2394 
L 2053 2394 
Q 2494 2394 2734 2622 
Q 2975 2850 2975 3272 
Q 2975 3691 2734 3919 
Q 2494 4147 2053 4147 
L 1259 4147 
z
M 628 4666 
L 2053 4666 
Q 2838 4666 3239 4311 
Q 3641 3956 3641 3272 
Q 3641 2581 3239 2228 
Q 2838 1875 2053 1875 
L 1259 1875 
L 1259 0 
L 628 0 
L 628 4666 
z
" transform="scale(0.015625)"/>
      </defs>
      <use xlink:href="#DejaVuSans-33"/>
      <use xlink:href="#DejaVuSans-53" transform="translate(60.296875 0)"/>
      <use xlink:href="#DejaVuSans-4e" transform="translate(123.78125 0)"/>
      <use xlink:href="#DejaVuSans-3" transform="translate(181.6875 0)"/>
      <use xlink:href="#DejaVuSans-49" transform="translate(213.46875 0)"/>
      <use xlink:href="#DejaVuSans-44" transform="translate(248.671875 0)"/>
      <use xlink:href="#DejaVuSans-4c" transform="translate(309.953125 0)"/>
      <use xlink:href="#DejaVuSans-4f" transform="translate(337.734375 0)"/>
      <use xlink:href="#DejaVuSans-3" transform="translate(365.515625 0)"/>
      <use xlink:href="#DejaVuSans-55" transform="translate(397.296875 0)"/>
      <use xlink:href="#DejaVuSans-44" transform="translate(438.40625 0)"/>
      <use xlink:href="#DejaVuSans-57" transform="translate(499.6875 0)"/>
      <use xlink:href="#DejaVuSans-48" transform="translate(538.890625 0)"/>
      <use xlink:href="#DejaVuSans-3" transform="translate(600.421875 0)"/>
      <use xlink:href="#DejaVuSans-b" transform="translate(632.203125 0)"/>
      <use xlink:href="#DejaVuSans-47" transform="translate(671.21875 0)"/>
      <use xlink:href="#DejaVuSans-55" transform="translate(734.703125 0)"/>
      <use xlink:href="#DejaVuSans-4c" transform="translate(775.8125 0)"/>
      <use xlink:href="#DejaVuSans-49" transform="translate(803.59375 0)"/>
      <use xlink:href="#DejaVuSans-57" transform="translate(837.046875 0)"/>
      <use xlink:href="#DejaVuSans-3" transform="translate(876.25 0)"/>
      <use xlink:href="#DejaVuSans-53" transform="translate(908.03125 0)"/>
      <use xlink:href="#DejaVuSans-52" transform="translate(971.515625 0)"/>
      <use xlink:href="#DejaVuSans-53" transform="translate(1032.703125 0)"/>
      <use xlink:href="#DejaVuSans-58" transform="translate(1096.1875 0)"/>
      <use xlink:href="#DejaVuSans-4f" transform="translate(1159.5625 0)"/>
      <use xlink:href="#DejaVuSans-44" transform="translate(1187.34375 0)"/>
      <use xlink:href="#DejaVuSans-57" transform="translate(1248.625 0)"/>
      <use xlink:href="#DejaVuSans-4c" transform="translate(1287.828125 0)"/>
      <use xlink:href="#DejaVuSans-52" transform="translate(1315.609375 0)"/>
      <use xlink:href="#DejaVuSans-51" transform="translate(1376.796875 0)"/>
      <use xlink:href="#DejaVuSans-c" transform="translate(1440.171875 0)"/>
     </g>
    </g>
    <g id="line2d_20">
     <path d="M 408.019062 219.633008 
L 416.519062 219.633008 
L 425.019062 219.633008 
" style="fill: none; stroke-dasharray: 6.66,2.88; stroke-dashoffset: 0; stroke: #2e2f31; stroke-width: 1.8"/>
    </g>
    <g id="text_20">
     <!-- flip rate (pass Cwk, fail Ppk) -->
     <g style="fill: #2e2f31" transform="translate(431.819062 222.608008) scale(0.085 -0.085)">
      <defs>
       <path id="DejaVuSans-26" d="M 4122 4306 
L 4122 3641 
Q 3803 3938 3442 4084 
Q 3081 4231 2675 4231 
Q 1875 4231 1450 3742 
Q 1025 3253 1025 2328 
Q 1025 1406 1450 917 
Q 1875 428 2675 428 
Q 3081 428 3442 575 
Q 3803 722 4122 1019 
L 4122 359 
Q 3791 134 3420 21 
Q 3050 -91 2638 -91 
Q 1578 -91 968 557 
Q 359 1206 359 2328 
Q 359 3453 968 4101 
Q 1578 4750 2638 4750 
Q 3056 4750 3426 4639 
Q 3797 4528 4122 4306 
z
" transform="scale(0.015625)"/>
       <path id="DejaVuSans-f" d="M 750 794 
L 1409 794 
L 1409 256 
L 897 -744 
L 494 -744 
L 750 256 
L 750 794 
z
" transform="scale(0.015625)"/>
      </defs>
      <use xlink:href="#DejaVuSans-13b0"/>
      <use xlink:href="#DejaVuSans-4c" transform="translate(62.984375 0)"/>
      <use xlink:href="#DejaVuSans-53" transform="translate(90.765625 0)"/>
      <use xlink:href="#DejaVuSans-3" transform="translate(154.25 0)"/>
      <use xlink:href="#DejaVuSans-55" transform="translate(186.03125 0)"/>
      <use xlink:href="#DejaVuSans-44" transform="translate(227.140625 0)"/>
      <use xlink:href="#DejaVuSans-57" transform="translate(288.421875 0)"/>
      <use xlink:href="#DejaVuSans-48" transform="translate(327.625 0)"/>
      <use xlink:href="#DejaVuSans-3" transform="translate(389.15625 0)"/>
      <use xlink:href="#DejaVuSans-b" transform="translate(420.9375 0)"/>
      <use xlink:href="#DejaVuSans-53" transform="translate(459.953125 0)"/>
      <use xlink:href="#DejaVuSans-44" transform="translate(523.4375 0)"/>
      <use xlink:href="#DejaVuSans-56" transform="translate(584.71875 0)"/>
      <use xlink:href="#DejaVuSans-56" transform="translate(636.8125 0)"/>
      <use xlink:href="#DejaVuSans-3" transform="translate(688.90625 0)"/>
      <use xlink:href="#DejaVuSans-26" transform="translate(720.6875 0)"/>
      <use xlink:href="#DejaVuSans-5a" transform="translate(790.515625 0)"/>
      <use xlink:href="#DejaVuSans-4e" transform="translate(872.296875 0)"/>
      <use xlink:href="#DejaVuSans-f" transform="translate(930.203125 0)"/>
      <use xlink:href="#DejaVuSans-3" transform="translate(961.984375 0)"/>
      <use xlink:href="#DejaVuSans-49" transform="translate(993.765625 0)"/>
      <use xlink:href="#DejaVuSans-44" transform="translate(1028.96875 0)"/>
      <use xlink:href="#DejaVuSans-4c" transform="translate(1090.25 0)"/>
      <use xlink:href="#DejaVuSans-4f" transform="translate(1118.03125 0)"/>
      <use xlink:href="#DejaVuSans-3" transform="translate(1145.8125 0)"/>
      <use xlink:href="#DejaVuSans-33" transform="translate(1177.59375 0)"/>
      <use xlink:href="#DejaVuSans-53" transform="translate(1237.890625 0)"/>
      <use xlink:href="#DejaVuSans-4e" transform="translate(1301.375 0)"/>
      <use xlink:href="#DejaVuSans-c" transform="translate(1359.28125 0)"/>
     </g>
    </g>
   </g>
  </g>
 </g>
 <defs>
  <clipPath id="p842a906667">
   <rect x="50.936364" y="27.309091" width="514.263636" height="204.990909"/>
  </clipPath>
 </defs>
</svg>
